<svg width="70" height="70" viewBox="0 0 70 70" fill="none" xmlns="http://www.w3.org/2000/svg">
<g opacity="0.45" clip-path="url(#clip0_16_172)">
<path d="M5.99853 9.80958L1.33989 16.4943C1.18769 16.7126 1.1333 16.9848 1.18823 17.2442C1.24356 17.5044 1.40418 17.7299 1.63202 17.8674L3.08899 18.7463L2.52102 19.5613C2.21739 19.997 2.32444 20.5963 2.7601 20.8998C3.19579 21.2035 3.79514 21.0964 4.09877 20.6607L4.7392 19.7418L6.13223 20.5821L5.56426 21.3971C5.26063 21.8328 5.36768 22.4321 5.80335 22.7356C6.23903 23.0393 6.83826 22.9322 7.14189 22.4965L7.78242 21.5774L9.34799 22.5218C9.50315 22.6155 9.68165 22.6633 9.86283 22.6599L12.0139 22.6192L27.1233 33.7447L41.1841 63.724C41.3301 64.035 41.6307 64.2446 41.9731 64.2739C42.3153 64.303 42.6472 64.1473 42.8436 63.8656L64.8087 32.3476C64.9564 32.1356 65.0106 31.8766 64.9664 31.6287C64.9518 31.547 64.9266 31.4666 64.8905 31.3896C64.7445 31.0786 64.4439 30.869 64.1015 30.8398L31.1083 28.027L15.4402 17.7033L14.7337 15.671C14.6743 15.4998 14.5676 15.3489 14.426 15.2358L11.6101 12.9842L12.2506 12.0652C12.4024 11.8474 12.4515 11.5886 12.4083 11.3464C12.365 11.1042 12.2294 10.8784 12.0115 10.7267C11.5758 10.4231 10.9766 10.5301 10.6729 10.9658L10.1051 11.7806L7.38822 9.60824C7.18051 9.44205 6.9132 9.36946 6.64992 9.40763C6.38663 9.4458 6.15058 9.59124 5.99853 9.80958ZM30.2539 29.767C30.2557 29.7681 35.6588 33.3282 35.6588 33.3282C36.1023 33.6204 36.6986 33.4977 36.9908 33.0543C37.1319 32.8402 37.1763 32.5904 37.1345 32.3563C37.0898 32.1058 36.9463 31.8734 36.7171 31.7224L34.4729 30.2437L62.2786 32.6143L42.2181 61.3996L30.3681 36.1338L32.5321 37.7272C32.9598 38.042 33.5617 37.9507 33.8765 37.523C34.1912 37.0954 34.1 36.4936 33.6723 36.1786L28.465 32.3443C28.4625 32.3424 28.4598 32.3405 28.4572 32.3386L13.6463 21.433L14.8922 19.6451L30.2539 29.767ZM13.0082 16.5645L13.5696 18.1794L11.8133 20.6997L10.1039 20.7321L3.50479 16.7512L6.98903 11.7517L13.0082 16.5645Z" fill="#DA0000"/>
<path d="M47.5899 46.9647C47.2863 47.4004 47.3933 47.9997 47.829 48.3033C48.2647 48.6069 48.864 48.4998 49.1675 48.0642L52.1735 43.7509C52.3252 43.5331 52.3744 43.2743 52.3312 43.0321C52.2879 42.7899 52.1523 42.5641 51.9344 42.4124C51.4987 42.1087 50.8993 42.2158 50.5958 42.6515L47.5899 46.9647Z" fill="#DA0000"/>
<path d="M42.5642 47.0563C42.2606 47.4919 42.3676 48.0913 42.8033 48.3948C43.239 48.6984 43.8383 48.5914 44.1418 48.1557L50.5196 39.0041C50.6714 38.7864 50.7206 38.5275 50.6774 38.2853C50.6341 38.0431 50.4984 37.8173 50.2805 37.6656C49.8449 37.362 49.2455 37.469 48.942 37.9047L42.5642 47.0563Z" fill="#DA0000"/>
<path d="M36.05 38.2046C36.1855 38.9631 36.6082 39.6236 37.2404 40.064C38.5453 40.9735 40.3468 40.6517 41.2563 39.3467C41.6968 38.7145 41.8648 37.9487 41.7293 37.1902C41.5938 36.4317 41.1711 35.7714 40.539 35.3309C39.234 34.4214 37.4325 34.7432 36.5231 36.0481C36.0826 36.6803 35.9146 37.4461 36.05 38.2046ZM39.4395 36.9086C39.6503 37.0555 39.7912 37.2756 39.8363 37.5283C39.8815 37.7811 39.8255 38.0365 39.6786 38.2473C39.3755 38.6822 38.7749 38.7895 38.34 38.4864C38.1292 38.3395 37.9883 38.1194 37.9431 37.8665C37.898 37.6137 37.9539 37.3584 38.1009 37.1477C38.404 36.7128 39.0046 36.6055 39.4395 36.9086Z" fill="#DA0000"/>
</g>
<defs>
<clipPath id="clip0_16_172">
<rect width="60.2557" height="60.2557" fill="white" transform="translate(10.5949 69.9119) rotate(-100.127)"/>
</clipPath>
</defs>
</svg>
