<svg width="65" height="65" viewBox="0 0 65 65" fill="none" xmlns="http://www.w3.org/2000/svg">
<g clip-path="url(#clip0_57_6)">
<path d="M24.9305 37.4546C23.2357 37.4546 21.6939 38.1438 20.5848 39.2544H20.5839C19.4722 40.3643 18.7832 41.9066 18.7831 43.6001C18.7831 45.2956 19.4722 46.8366 20.5839 47.9468L20.5848 47.9478C21.694 49.0584 23.2354 49.7484 24.9296 49.7476H24.9305C26.6248 49.7485 28.1659 49.0589 29.2762 47.9478V47.9468C30.3871 46.8366 31.076 45.2956 31.076 43.6001C31.076 41.9064 30.3872 40.3644 29.2762 39.2544C28.1661 38.1434 26.6251 37.4547 24.9305 37.4546ZM25.7001 44.6909C25.9553 44.5872 26.2472 44.6045 26.4901 44.7427L26.4921 44.7437L29.0341 46.2114L29.5331 46.5005L29.1766 46.9536C29.0464 47.1194 28.9068 47.2782 28.7567 47.4282C27.95 48.2349 26.8943 48.7855 25.7108 48.9565L25.1385 49.0396V45.5259C25.1385 45.202 25.3121 44.9069 25.5878 44.7456L25.5927 44.7427L25.7001 44.6909ZM23.369 44.7437C23.6128 44.6038 23.9045 44.5872 24.1591 44.6899L24.2655 44.7417L24.2743 44.7466C24.5478 44.908 24.7206 45.2026 24.7206 45.5259V49.0396L24.1483 48.9565C23.0396 48.7961 22.0424 48.3023 21.2567 47.5767L21.1024 47.4282C20.9523 47.2781 20.8127 47.1194 20.6825 46.9536L20.326 46.4995L20.8251 46.2114L23.368 44.7437H23.369ZM29.9589 41.6001C30.2048 42.2176 30.3416 42.8934 30.3417 43.6001C30.3417 44.309 30.2047 44.9831 29.9589 45.6021L29.745 46.1401L29.244 45.8501L26.702 44.3823L26.703 44.3813C26.4203 44.2199 26.2499 43.9207 26.2499 43.6001C26.25 43.2775 26.423 42.9788 26.704 42.8188L29.244 41.3521L29.745 41.063L29.9589 41.6001ZM20.6151 41.3521L23.1552 42.8188C23.4365 42.9789 23.6091 43.2775 23.6093 43.6001C23.6093 43.9205 23.4394 44.2198 23.1581 44.3813V44.3823L20.6151 45.8501L20.1141 46.1401L19.9003 45.6021C19.6544 44.9827 19.5184 44.3091 19.5175 43.6011V43.6001C19.5184 42.8942 19.6541 42.2181 19.9003 41.6001L20.1141 41.063L20.6151 41.3521ZM24.9305 42.3657C25.6135 42.3659 26.1649 42.9206 26.1649 43.6021C26.1647 44.283 25.6133 44.8372 24.9305 44.8374C24.2483 44.8374 23.6945 44.284 23.6942 43.6021C23.6942 42.9197 24.2482 42.3657 24.9305 42.3657ZM25.7108 38.2456C26.8945 38.4167 27.9504 38.9678 28.7567 39.7729L28.7587 39.7749C28.9078 39.925 29.0462 40.083 29.1757 40.2466L29.535 40.7007L29.0341 40.9897L26.4921 42.4575C26.213 42.6185 25.8689 42.6188 25.5897 42.4575L25.5907 42.4565C25.3121 42.2958 25.1387 41.9999 25.1385 41.6772V38.1626L25.7108 38.2456ZM24.7206 41.6772C24.7205 42 24.5479 42.2967 24.2714 42.4575L24.2684 42.4585C23.9897 42.618 23.6479 42.6191 23.368 42.4575L20.826 40.9907L20.3251 40.7017L20.6835 40.2476C20.8131 40.0834 20.9522 39.9252 21.1014 39.7749L21.1024 39.7729L21.2567 39.6255C22.0421 38.9007 23.0393 38.4061 24.1483 38.2456L24.1844 38.2397H24.7206V41.6772Z" fill="white"/>
<path d="M24.9305 37.4546C23.2357 37.4546 21.6939 38.1438 20.5848 39.2544H20.5839C19.4722 40.3643 18.7832 41.9066 18.7831 43.6001C18.7831 45.2956 19.4722 46.8366 20.5839 47.9468L20.5848 47.9478C21.694 49.0584 23.2354 49.7484 24.9296 49.7476H24.9305C26.6248 49.7485 28.1659 49.0589 29.2762 47.9478V47.9468C30.3871 46.8366 31.076 45.2956 31.076 43.6001C31.076 41.9064 30.3872 40.3644 29.2762 39.2544C28.1661 38.1434 26.6251 37.4547 24.9305 37.4546ZM25.7001 44.6909C25.9553 44.5872 26.2472 44.6045 26.4901 44.7427L26.4921 44.7437L29.0341 46.2114L29.5331 46.5005L29.1766 46.9536C29.0464 47.1194 28.9068 47.2782 28.7567 47.4282C27.95 48.2349 26.8943 48.7855 25.7108 48.9565L25.1385 49.0396V45.5259C25.1385 45.202 25.3121 44.9069 25.5878 44.7456L25.5927 44.7427L25.7001 44.6909ZM23.369 44.7437C23.6128 44.6038 23.9045 44.5872 24.1591 44.6899L24.2655 44.7417L24.2743 44.7466C24.5478 44.908 24.7206 45.2026 24.7206 45.5259V49.0396L24.1483 48.9565C23.0396 48.7961 22.0424 48.3023 21.2567 47.5767L21.1024 47.4282C20.9523 47.2781 20.8127 47.1194 20.6825 46.9536L20.326 46.4995L20.8251 46.2114L23.368 44.7437H23.369ZM29.9589 41.6001C30.2048 42.2176 30.3416 42.8934 30.3417 43.6001C30.3417 44.309 30.2047 44.9831 29.9589 45.6021L29.745 46.1401L29.244 45.8501L26.702 44.3823L26.703 44.3813C26.4203 44.2199 26.2499 43.9207 26.2499 43.6001C26.25 43.2775 26.423 42.9788 26.704 42.8188L29.244 41.3521L29.745 41.063L29.9589 41.6001ZM20.6151 41.3521L23.1552 42.8188C23.4365 42.9789 23.6091 43.2775 23.6093 43.6001C23.6093 43.9205 23.4394 44.2198 23.1581 44.3813V44.3823L20.6151 45.8501L20.1141 46.1401L19.9003 45.6021C19.6544 44.9827 19.5184 44.3091 19.5175 43.6011V43.6001C19.5184 42.8942 19.6541 42.2181 19.9003 41.6001L20.1141 41.063L20.6151 41.3521ZM24.9305 42.3657C25.6135 42.3659 26.1649 42.9206 26.1649 43.6021C26.1647 44.283 25.6133 44.8372 24.9305 44.8374C24.2483 44.8374 23.6945 44.284 23.6942 43.6021C23.6942 42.9197 24.2482 42.3657 24.9305 42.3657ZM25.7108 38.2456C26.8945 38.4167 27.9504 38.9678 28.7567 39.7729L28.7587 39.7749C28.9078 39.925 29.0462 40.083 29.1757 40.2466L29.535 40.7007L29.0341 40.9897L26.4921 42.4575C26.213 42.6185 25.8689 42.6188 25.5897 42.4575L25.5907 42.4565C25.3121 42.2958 25.1387 41.9999 25.1385 41.6772V38.1626L25.7108 38.2456ZM24.7206 41.6772C24.7205 42 24.5479 42.2967 24.2714 42.4575L24.2684 42.4585C23.9897 42.618 23.6479 42.6191 23.368 42.4575L20.826 40.9907L20.3251 40.7017L20.6835 40.2476C20.8131 40.0834 20.9522 39.9252 21.1014 39.7749L21.1024 39.7729L21.2567 39.6255C22.0421 38.9007 23.0393 38.4061 24.1483 38.2456L24.1844 38.2397H24.7206V41.6772Z" stroke="#D40008"/>
<path d="M24.9305 37.4546C23.2357 37.4546 21.6939 38.1438 20.5848 39.2544H20.5839C19.4722 40.3643 18.7832 41.9066 18.7831 43.6001C18.7831 45.2956 19.4722 46.8366 20.5839 47.9468L20.5848 47.9478C21.694 49.0584 23.2354 49.7484 24.9296 49.7476H24.9305C26.6248 49.7485 28.1659 49.0589 29.2762 47.9478V47.9468C30.3871 46.8366 31.076 45.2956 31.076 43.6001C31.076 41.9064 30.3872 40.3644 29.2762 39.2544C28.1661 38.1434 26.6251 37.4547 24.9305 37.4546ZM25.7001 44.6909C25.9553 44.5872 26.2472 44.6045 26.4901 44.7427L26.4921 44.7437L29.0341 46.2114L29.5331 46.5005L29.1766 46.9536C29.0464 47.1194 28.9068 47.2782 28.7567 47.4282C27.95 48.2349 26.8943 48.7855 25.7108 48.9565L25.1385 49.0396V45.5259C25.1385 45.202 25.3121 44.9069 25.5878 44.7456L25.5927 44.7427L25.7001 44.6909ZM23.369 44.7437C23.6128 44.6038 23.9045 44.5872 24.1591 44.6899L24.2655 44.7417L24.2743 44.7466C24.5478 44.908 24.7206 45.2026 24.7206 45.5259V49.0396L24.1483 48.9565C23.0396 48.7961 22.0424 48.3023 21.2567 47.5767L21.1024 47.4282C20.9523 47.2781 20.8127 47.1194 20.6825 46.9536L20.326 46.4995L20.8251 46.2114L23.368 44.7437H23.369ZM29.9589 41.6001C30.2048 42.2176 30.3416 42.8934 30.3417 43.6001C30.3417 44.309 30.2047 44.9831 29.9589 45.6021L29.745 46.1401L29.244 45.8501L26.702 44.3823L26.703 44.3813C26.4203 44.2199 26.2499 43.9207 26.2499 43.6001C26.25 43.2775 26.423 42.9788 26.704 42.8188L29.244 41.3521L29.745 41.063L29.9589 41.6001ZM20.6151 41.3521L23.1552 42.8188C23.4365 42.9789 23.6091 43.2775 23.6093 43.6001C23.6093 43.9205 23.4394 44.2198 23.1581 44.3813V44.3823L20.6151 45.8501L20.1141 46.1401L19.9003 45.6021C19.6544 44.9827 19.5184 44.3091 19.5175 43.6011V43.6001C19.5184 42.8942 19.6541 42.2181 19.9003 41.6001L20.1141 41.063L20.6151 41.3521ZM24.9305 42.3657C25.6135 42.3659 26.1649 42.9206 26.1649 43.6021C26.1647 44.283 25.6133 44.8372 24.9305 44.8374C24.2483 44.8374 23.6945 44.284 23.6942 43.6021C23.6942 42.9197 24.2482 42.3657 24.9305 42.3657ZM25.7108 38.2456C26.8945 38.4167 27.9504 38.9678 28.7567 39.7729L28.7587 39.7749C28.9078 39.925 29.0462 40.083 29.1757 40.2466L29.535 40.7007L29.0341 40.9897L26.4921 42.4575C26.213 42.6185 25.8689 42.6188 25.5897 42.4575L25.5907 42.4565C25.3121 42.2958 25.1387 41.9999 25.1385 41.6772V38.1626L25.7108 38.2456ZM24.7206 41.6772C24.7205 42 24.5479 42.2967 24.2714 42.4575L24.2684 42.4585C23.9897 42.618 23.6479 42.6191 23.368 42.4575L20.826 40.9907L20.3251 40.7017L20.6835 40.2476C20.8131 40.0834 20.9522 39.9252 21.1014 39.7749L21.1024 39.7729L21.2567 39.6255C22.0421 38.9007 23.0393 38.4061 24.1483 38.2456L24.1844 38.2397H24.7206V41.6772Z" stroke="black" stroke-opacity="0.2"/>
<path d="M6.64716 37.4546C4.95166 37.4546 3.41067 38.1435 2.30048 39.2544H2.2995C1.1886 40.3644 0.499793 41.9065 0.499695 43.6001C0.499695 45.2955 1.18873 46.8366 2.2995 47.9468L2.30048 47.9478C3.41059 49.0585 4.95124 49.7484 6.64618 49.7476H6.64716C8.34062 49.7485 9.88268 49.0587 10.9919 47.9478V47.9468L11.195 47.7339C12.1868 46.6436 12.7927 45.1898 12.7927 43.6001C12.7926 42.0123 12.1867 40.5584 11.195 39.4683L10.9919 39.2544C9.88287 38.1436 8.34087 37.4547 6.64716 37.4546ZM5.19305 44.6909C5.44833 44.5871 5.73991 44.6044 5.98309 44.7427L5.98798 44.7456C6.26361 44.9069 6.43719 45.202 6.43719 45.5259V49.0396L5.86591 48.9565C4.68221 48.7855 3.62585 48.235 2.81903 47.4282C2.66894 47.2781 2.52934 47.1194 2.39911 46.9536L2.04266 46.5005L2.54266 46.2114L5.08368 44.7437L5.08661 44.7427L5.19305 44.6909ZM7.41669 44.6899C7.67129 44.5871 7.96209 44.6039 8.20575 44.7427L8.2077 44.7437L10.7507 46.2114L11.2497 46.4995L10.8942 46.9536C10.764 47.1197 10.6235 47.2781 10.4733 47.4282C9.66583 48.2347 8.61008 48.7855 7.42743 48.9565L7.3913 48.9614H6.85516V45.5259C6.85516 45.2026 7.02799 44.908 7.30145 44.7466L7.31024 44.7417L7.41669 44.6899ZM11.6755 41.6001C11.9216 42.2181 12.0582 42.8939 12.0583 43.6001C12.0583 44.3084 11.9223 44.9827 11.6765 45.6021L11.4626 46.1401L10.9616 45.8501L8.41864 44.3813C8.13679 44.2197 7.96747 43.9203 7.96747 43.6001C7.96758 43.3181 8.0991 43.0542 8.32098 42.8853L8.42059 42.8188L10.9616 41.3521L11.4616 41.063L11.6755 41.6001ZM2.33173 41.3521L4.87372 42.8208C5.11932 42.9612 5.28136 43.2064 5.31805 43.481L5.32587 43.6001L5.31805 43.7202C5.28154 43.9941 5.12052 44.2401 4.87372 44.3813V44.3823L2.33173 45.8501L1.83075 46.1401L1.61688 45.6021C1.37097 44.9826 1.23519 44.3089 1.23407 43.6011V43.6001C1.23519 42.8943 1.3707 42.2182 1.61688 41.6001L1.83075 41.063L2.33173 41.3521ZM6.64716 42.3657C7.32881 42.3659 7.88153 42.9202 7.88153 43.6021C7.88129 44.2834 7.32867 44.8372 6.64716 44.8374C5.9637 44.8374 5.41107 44.2835 5.41083 43.6021C5.41083 42.9201 5.96355 42.3657 6.64716 42.3657ZM7.42743 38.2456C8.61041 38.4167 9.66607 38.9679 10.4733 39.7729L10.4753 39.7749C10.6243 39.925 10.7627 40.083 10.8923 40.2466L11.2516 40.7007L10.7507 40.9897L8.20868 42.4575C7.92895 42.6189 7.58615 42.6182 7.30731 42.4585L7.30536 42.4565C7.02842 42.2957 6.85627 41.9997 6.85614 41.6772V38.1626L7.42743 38.2456ZM6.43719 41.6772C6.43715 42.0003 6.26431 42.2968 5.98602 42.4575C5.74177 42.5984 5.44771 42.6169 5.1911 42.5112L5.08368 42.4575L2.54266 40.9907L2.04169 40.7007L2.40009 40.2476C2.52978 40.0835 2.66876 39.9252 2.81805 39.7749L2.81903 39.7739L2.97333 39.6255C3.75822 38.9005 4.75593 38.406 5.86591 38.2456L6.43719 38.1626V41.6772Z" fill="white"/>
<path d="M6.64716 37.4546C4.95166 37.4546 3.41067 38.1435 2.30048 39.2544H2.2995C1.1886 40.3644 0.499793 41.9065 0.499695 43.6001C0.499695 45.2955 1.18873 46.8366 2.2995 47.9468L2.30048 47.9478C3.41059 49.0585 4.95124 49.7484 6.64618 49.7476H6.64716C8.34062 49.7485 9.88268 49.0587 10.9919 47.9478V47.9468L11.195 47.7339C12.1868 46.6436 12.7927 45.1898 12.7927 43.6001C12.7926 42.0123 12.1867 40.5584 11.195 39.4683L10.9919 39.2544C9.88287 38.1436 8.34087 37.4547 6.64716 37.4546ZM5.19305 44.6909C5.44833 44.5871 5.73991 44.6044 5.98309 44.7427L5.98798 44.7456C6.26361 44.9069 6.43719 45.202 6.43719 45.5259V49.0396L5.86591 48.9565C4.68221 48.7855 3.62585 48.235 2.81903 47.4282C2.66894 47.2781 2.52934 47.1194 2.39911 46.9536L2.04266 46.5005L2.54266 46.2114L5.08368 44.7437L5.08661 44.7427L5.19305 44.6909ZM7.41669 44.6899C7.67129 44.5871 7.96209 44.6039 8.20575 44.7427L8.2077 44.7437L10.7507 46.2114L11.2497 46.4995L10.8942 46.9536C10.764 47.1197 10.6235 47.2781 10.4733 47.4282C9.66583 48.2347 8.61008 48.7855 7.42743 48.9565L7.3913 48.9614H6.85516V45.5259C6.85516 45.2026 7.02799 44.908 7.30145 44.7466L7.31024 44.7417L7.41669 44.6899ZM11.6755 41.6001C11.9216 42.2181 12.0582 42.8939 12.0583 43.6001C12.0583 44.3084 11.9223 44.9827 11.6765 45.6021L11.4626 46.1401L10.9616 45.8501L8.41864 44.3813C8.13679 44.2197 7.96747 43.9203 7.96747 43.6001C7.96758 43.3181 8.0991 43.0542 8.32098 42.8853L8.42059 42.8188L10.9616 41.3521L11.4616 41.063L11.6755 41.6001ZM2.33173 41.3521L4.87372 42.8208C5.11932 42.9612 5.28136 43.2064 5.31805 43.481L5.32587 43.6001L5.31805 43.7202C5.28154 43.9941 5.12052 44.2401 4.87372 44.3813V44.3823L2.33173 45.8501L1.83075 46.1401L1.61688 45.6021C1.37097 44.9826 1.23519 44.3089 1.23407 43.6011V43.6001C1.23519 42.8943 1.3707 42.2182 1.61688 41.6001L1.83075 41.063L2.33173 41.3521ZM6.64716 42.3657C7.32881 42.3659 7.88153 42.9202 7.88153 43.6021C7.88129 44.2834 7.32867 44.8372 6.64716 44.8374C5.9637 44.8374 5.41107 44.2835 5.41083 43.6021C5.41083 42.9201 5.96355 42.3657 6.64716 42.3657ZM7.42743 38.2456C8.61041 38.4167 9.66607 38.9679 10.4733 39.7729L10.4753 39.7749C10.6243 39.925 10.7627 40.083 10.8923 40.2466L11.2516 40.7007L10.7507 40.9897L8.20868 42.4575C7.92895 42.6189 7.58615 42.6182 7.30731 42.4585L7.30536 42.4565C7.02842 42.2957 6.85627 41.9997 6.85614 41.6772V38.1626L7.42743 38.2456ZM6.43719 41.6772C6.43715 42.0003 6.26431 42.2968 5.98602 42.4575C5.74177 42.5984 5.44771 42.6169 5.1911 42.5112L5.08368 42.4575L2.54266 40.9907L2.04169 40.7007L2.40009 40.2476C2.52978 40.0835 2.66876 39.9252 2.81805 39.7749L2.81903 39.7739L2.97333 39.6255C3.75822 38.9005 4.75593 38.406 5.86591 38.2456L6.43719 38.1626V41.6772Z" stroke="#D40008"/>
<path d="M6.64716 37.4546C4.95166 37.4546 3.41067 38.1435 2.30048 39.2544H2.2995C1.1886 40.3644 0.499793 41.9065 0.499695 43.6001C0.499695 45.2955 1.18873 46.8366 2.2995 47.9468L2.30048 47.9478C3.41059 49.0585 4.95124 49.7484 6.64618 49.7476H6.64716C8.34062 49.7485 9.88268 49.0587 10.9919 47.9478V47.9468L11.195 47.7339C12.1868 46.6436 12.7927 45.1898 12.7927 43.6001C12.7926 42.0123 12.1867 40.5584 11.195 39.4683L10.9919 39.2544C9.88287 38.1436 8.34087 37.4547 6.64716 37.4546ZM5.19305 44.6909C5.44833 44.5871 5.73991 44.6044 5.98309 44.7427L5.98798 44.7456C6.26361 44.9069 6.43719 45.202 6.43719 45.5259V49.0396L5.86591 48.9565C4.68221 48.7855 3.62585 48.235 2.81903 47.4282C2.66894 47.2781 2.52934 47.1194 2.39911 46.9536L2.04266 46.5005L2.54266 46.2114L5.08368 44.7437L5.08661 44.7427L5.19305 44.6909ZM7.41669 44.6899C7.67129 44.5871 7.96209 44.6039 8.20575 44.7427L8.2077 44.7437L10.7507 46.2114L11.2497 46.4995L10.8942 46.9536C10.764 47.1197 10.6235 47.2781 10.4733 47.4282C9.66583 48.2347 8.61008 48.7855 7.42743 48.9565L7.3913 48.9614H6.85516V45.5259C6.85516 45.2026 7.02799 44.908 7.30145 44.7466L7.31024 44.7417L7.41669 44.6899ZM11.6755 41.6001C11.9216 42.2181 12.0582 42.8939 12.0583 43.6001C12.0583 44.3084 11.9223 44.9827 11.6765 45.6021L11.4626 46.1401L10.9616 45.8501L8.41864 44.3813C8.13679 44.2197 7.96747 43.9203 7.96747 43.6001C7.96758 43.3181 8.0991 43.0542 8.32098 42.8853L8.42059 42.8188L10.9616 41.3521L11.4616 41.063L11.6755 41.6001ZM2.33173 41.3521L4.87372 42.8208C5.11932 42.9612 5.28136 43.2064 5.31805 43.481L5.32587 43.6001L5.31805 43.7202C5.28154 43.9941 5.12052 44.2401 4.87372 44.3813V44.3823L2.33173 45.8501L1.83075 46.1401L1.61688 45.6021C1.37097 44.9826 1.23519 44.3089 1.23407 43.6011V43.6001C1.23519 42.8943 1.3707 42.2182 1.61688 41.6001L1.83075 41.063L2.33173 41.3521ZM6.64716 42.3657C7.32881 42.3659 7.88153 42.9202 7.88153 43.6021C7.88129 44.2834 7.32867 44.8372 6.64716 44.8374C5.9637 44.8374 5.41107 44.2835 5.41083 43.6021C5.41083 42.9201 5.96355 42.3657 6.64716 42.3657ZM7.42743 38.2456C8.61041 38.4167 9.66607 38.9679 10.4733 39.7729L10.4753 39.7749C10.6243 39.925 10.7627 40.083 10.8923 40.2466L11.2516 40.7007L10.7507 40.9897L8.20868 42.4575C7.92895 42.6189 7.58615 42.6182 7.30731 42.4585L7.30536 42.4565C7.02842 42.2957 6.85627 41.9997 6.85614 41.6772V38.1626L7.42743 38.2456ZM6.43719 41.6772C6.43715 42.0003 6.26431 42.2968 5.98602 42.4575C5.74177 42.5984 5.44771 42.6169 5.1911 42.5112L5.08368 42.4575L2.54266 40.9907L2.04169 40.7007L2.40009 40.2476C2.52978 40.0835 2.66876 39.9252 2.81805 39.7749L2.81903 39.7739L2.97333 39.6255C3.75822 38.9005 4.75593 38.406 5.86591 38.2456L6.43719 38.1626V41.6772Z" stroke="black" stroke-opacity="0.2"/>
<path d="M58.1633 24.6472C56.4925 24.3615 55.0606 24.8162 53.7892 25.8904C52.4844 26.993 51.3357 28.7648 50.3752 31.0994L50.1701 31.5964L49.9943 32.0798C49.8853 32.3795 49.7798 32.6748 49.6799 32.9763L49.4523 33.6619H38.3771C37.7881 33.6619 36.6163 33.9061 35.5881 34.991C34.6633 35.9667 33.7644 37.722 33.6057 40.8533H34.2902L35.3781 37.783L35.6086 37.1316L36.3 37.1169L37.8342 37.0857L39.4396 37.0525L38.7609 38.5076L34.4875 47.6785L34.0461 48.6765H34.9133L38.843 42.4294L39.1369 41.9617H42.3078L41.6652 43.3757L40.6476 45.615L43.5187 48.4851L43.8117 48.1912L42.0598 46.2654L41.4855 45.6345L42.0187 44.9685L44.1242 42.3367L44.424 41.9617H51.8234L51.7023 43.071L51.0851 48.6765H52.0724L53.883 41.2136L54.1945 39.9304L55.3449 40.5789L57.1799 41.6111L57.715 41.9119L57.6887 42.5251L57.5685 45.364L58.0715 45.4343L59.0715 41.0203L55.2267 38.4763L54.6408 38.0886L54.8068 37.407L56.3732 30.949L56.3879 30.8904L56.4084 30.8347L56.4904 30.6335C56.5819 30.4312 56.7034 30.2275 56.8703 30.0593C57.1166 29.8112 57.5667 29.5623 58.1047 29.7361C58.5408 29.8772 58.7619 30.2198 58.8566 30.406C58.967 30.6229 59.026 30.8575 59.05 31.073C59.07 31.2514 59.1203 32.253 59.1633 33.1375C59.1776 33.4325 59.192 33.7245 59.2043 33.9841H60.9807C61.0777 33.5583 61.2052 33.0019 61.3351 32.4294C61.6099 31.219 61.8922 29.9635 61.9465 29.697C61.9942 29.4622 62.0264 29.2363 62.0432 29.0222L62.0793 28.5554L62.4006 28.3279L63.4592 27.0535L62.1682 26.9597L61.6916 26.9246L61.4201 26.533C60.7374 25.5501 59.5369 24.8801 58.1642 24.6472H58.1633ZM9.71796 15.7527C8.95379 15.7527 8.498 16.0156 7.99139 16.366C7.52337 16.6897 6.75054 17.3337 5.65839 17.3337C4.74686 17.3337 4.00244 17.0474 3.42108 16.8396C3.16173 16.7469 2.92116 16.6639 2.67987 16.5994V34.5642H24.8752V16.6003C24.6342 16.6648 24.3938 16.7471 24.1349 16.8396C23.5538 17.0473 22.8092 17.3337 21.8976 17.3337C20.8056 17.3337 20.0327 16.6896 19.5646 16.366C19.0579 16.0156 18.6018 15.7527 17.8371 15.7527C17.073 15.7527 16.6172 16.0156 16.1105 16.366C15.6425 16.6897 14.8696 17.3337 13.7775 17.3337C12.6861 17.3337 11.9134 16.6896 11.4455 16.366C10.9387 16.0155 10.4822 15.7527 9.71796 15.7527Z" fill="white"/>
<path d="M58.1633 24.6472C56.4925 24.3615 55.0606 24.8162 53.7892 25.8904C52.4844 26.993 51.3357 28.7648 50.3752 31.0994L50.1701 31.5964L49.9943 32.0798C49.8853 32.3795 49.7798 32.6748 49.6799 32.9763L49.4523 33.6619H38.3771C37.7881 33.6619 36.6163 33.9061 35.5881 34.991C34.6633 35.9667 33.7644 37.722 33.6057 40.8533H34.2902L35.3781 37.783L35.6086 37.1316L36.3 37.1169L37.8342 37.0857L39.4396 37.0525L38.7609 38.5076L34.4875 47.6785L34.0461 48.6765H34.9133L38.843 42.4294L39.1369 41.9617H42.3078L41.6652 43.3757L40.6476 45.615L43.5187 48.4851L43.8117 48.1912L42.0598 46.2654L41.4855 45.6345L42.0187 44.9685L44.1242 42.3367L44.424 41.9617H51.8234L51.7023 43.071L51.0851 48.6765H52.0724L53.883 41.2136L54.1945 39.9304L55.3449 40.5789L57.1799 41.6111L57.715 41.9119L57.6887 42.5251L57.5685 45.364L58.0715 45.4343L59.0715 41.0203L55.2267 38.4763L54.6408 38.0886L54.8068 37.407L56.3732 30.949L56.3879 30.8904L56.4084 30.8347L56.4904 30.6335C56.5819 30.4312 56.7034 30.2275 56.8703 30.0593C57.1166 29.8112 57.5667 29.5623 58.1047 29.7361C58.5408 29.8772 58.7619 30.2198 58.8566 30.406C58.967 30.6229 59.026 30.8575 59.05 31.073C59.07 31.2514 59.1203 32.253 59.1633 33.1375C59.1776 33.4325 59.192 33.7245 59.2043 33.9841H60.9807C61.0777 33.5583 61.2052 33.0019 61.3351 32.4294C61.6099 31.219 61.8922 29.9635 61.9465 29.697C61.9942 29.4622 62.0264 29.2363 62.0432 29.0222L62.0793 28.5554L62.4006 28.3279L63.4592 27.0535L62.1682 26.9597L61.6916 26.9246L61.4201 26.533C60.7374 25.5501 59.5369 24.8801 58.1642 24.6472H58.1633ZM9.71796 15.7527C8.95379 15.7527 8.498 16.0156 7.99139 16.366C7.52337 16.6897 6.75054 17.3337 5.65839 17.3337C4.74686 17.3337 4.00244 17.0474 3.42108 16.8396C3.16173 16.7469 2.92116 16.6639 2.67987 16.5994V34.5642H24.8752V16.6003C24.6342 16.6648 24.3938 16.7471 24.1349 16.8396C23.5538 17.0473 22.8092 17.3337 21.8976 17.3337C20.8056 17.3337 20.0327 16.6896 19.5646 16.366C19.0579 16.0156 18.6018 15.7527 17.8371 15.7527C17.073 15.7527 16.6172 16.0156 16.1105 16.366C15.6425 16.6897 14.8696 17.3337 13.7775 17.3337C12.6861 17.3337 11.9134 16.6896 11.4455 16.366C10.9387 16.0155 10.4822 15.7527 9.71796 15.7527Z" stroke="#D40008" stroke-width="2"/>
<path d="M58.1633 24.6472C56.4925 24.3615 55.0606 24.8162 53.7892 25.8904C52.4844 26.993 51.3357 28.7648 50.3752 31.0994L50.1701 31.5964L49.9943 32.0798C49.8853 32.3795 49.7798 32.6748 49.6799 32.9763L49.4523 33.6619H38.3771C37.7881 33.6619 36.6163 33.9061 35.5881 34.991C34.6633 35.9667 33.7644 37.722 33.6057 40.8533H34.2902L35.3781 37.783L35.6086 37.1316L36.3 37.1169L37.8342 37.0857L39.4396 37.0525L38.7609 38.5076L34.4875 47.6785L34.0461 48.6765H34.9133L38.843 42.4294L39.1369 41.9617H42.3078L41.6652 43.3757L40.6476 45.615L43.5187 48.4851L43.8117 48.1912L42.0598 46.2654L41.4855 45.6345L42.0187 44.9685L44.1242 42.3367L44.424 41.9617H51.8234L51.7023 43.071L51.0851 48.6765H52.0724L53.883 41.2136L54.1945 39.9304L55.3449 40.5789L57.1799 41.6111L57.715 41.9119L57.6887 42.5251L57.5685 45.364L58.0715 45.4343L59.0715 41.0203L55.2267 38.4763L54.6408 38.0886L54.8068 37.407L56.3732 30.949L56.3879 30.8904L56.4084 30.8347L56.4904 30.6335C56.5819 30.4312 56.7034 30.2275 56.8703 30.0593C57.1166 29.8112 57.5667 29.5623 58.1047 29.7361C58.5408 29.8772 58.7619 30.2198 58.8566 30.406C58.967 30.6229 59.026 30.8575 59.05 31.073C59.07 31.2514 59.1203 32.253 59.1633 33.1375C59.1776 33.4325 59.192 33.7245 59.2043 33.9841H60.9807C61.0777 33.5583 61.2052 33.0019 61.3351 32.4294C61.6099 31.219 61.8922 29.9635 61.9465 29.697C61.9942 29.4622 62.0264 29.2363 62.0432 29.0222L62.0793 28.5554L62.4006 28.3279L63.4592 27.0535L62.1682 26.9597L61.6916 26.9246L61.4201 26.533C60.7374 25.5501 59.5369 24.8801 58.1642 24.6472H58.1633ZM9.71796 15.7527C8.95379 15.7527 8.498 16.0156 7.99139 16.366C7.52337 16.6897 6.75054 17.3337 5.65839 17.3337C4.74686 17.3337 4.00244 17.0474 3.42108 16.8396C3.16173 16.7469 2.92116 16.6639 2.67987 16.5994V34.5642H24.8752V16.6003C24.6342 16.6648 24.3938 16.7471 24.1349 16.8396C23.5538 17.0473 22.8092 17.3337 21.8976 17.3337C20.8056 17.3337 20.0327 16.6896 19.5646 16.366C19.0579 16.0156 18.6018 15.7527 17.8371 15.7527C17.073 15.7527 16.6172 16.0156 16.1105 16.366C15.6425 16.6897 14.8696 17.3337 13.7775 17.3337C12.6861 17.3337 11.9134 16.6896 11.4455 16.366C10.9387 16.0155 10.4822 15.7527 9.71796 15.7527Z" stroke="black" stroke-opacity="0.2" stroke-width="2"/>
<mask id="path-4-inside-1_57_6" fill="white">
<path d="M1.69842 36.3455H5.02319C3.87465 36.6003 2.8057 37.1233 1.8938 37.8858L1.69842 36.3455Z"/>
</mask>
<path d="M1.69842 36.3455H5.02319C3.87465 36.6003 2.8057 37.1233 1.8938 37.8858L1.69842 36.3455Z" fill="black"/>
<path d="M1.69842 36.3455L0.148339 36.5421L-0.0747943 34.783H1.69842V36.3455ZM5.02319 36.3455V34.783L5.36159 37.8709L5.02319 36.3455ZM1.8938 37.8858L2.89607 39.0845L0.703382 40.9179L0.34372 38.0824L1.8938 37.8858ZM1.69842 36.3455V34.783H5.02319V36.3455V37.908H1.69842V36.3455ZM5.02319 36.3455L5.36159 37.8709C4.45616 38.0717 3.61514 38.4832 2.89607 39.0845L1.8938 37.8858L0.891527 36.6871C1.99627 35.7634 3.29313 35.1288 4.68479 34.82L5.02319 36.3455ZM1.8938 37.8858L0.34372 38.0824L0.148339 36.5421L1.69842 36.3455L3.2485 36.1488L3.44388 37.6892L1.8938 37.8858Z" fill="#D40008" mask="url(#path-4-inside-1_57_6)"/>
<path d="M1.69842 36.3455L0.148339 36.5421L-0.0747943 34.783H1.69842V36.3455ZM5.02319 36.3455V34.783L5.36159 37.8709L5.02319 36.3455ZM1.8938 37.8858L2.89607 39.0845L0.703382 40.9179L0.34372 38.0824L1.8938 37.8858ZM1.69842 36.3455V34.783H5.02319V36.3455V37.908H1.69842V36.3455ZM5.02319 36.3455L5.36159 37.8709C4.45616 38.0717 3.61514 38.4832 2.89607 39.0845L1.8938 37.8858L0.891527 36.6871C1.99627 35.7634 3.29313 35.1288 4.68479 34.82L5.02319 36.3455ZM1.8938 37.8858L0.34372 38.0824L0.148339 36.5421L1.69842 36.3455L3.2485 36.1488L3.44388 37.6892L1.8938 37.8858Z" fill="black" fill-opacity="0.2" mask="url(#path-4-inside-1_57_6)"/>
<mask id="path-6-inside-2_57_6" fill="white">
<path d="M8.1441 41.0075V39.7565C8.53308 39.9069 8.89706 40.1177 9.2265 40.3839L8.1441 41.0075Z"/>
</mask>
<path d="M8.1441 41.0075V39.7565C8.53308 39.9069 8.89706 40.1177 9.2265 40.3839L8.1441 41.0075Z" fill="black"/>
<path d="M8.1441 41.0075L8.9241 42.3614L6.5816 43.7109V41.0075H8.1441ZM8.1441 39.7565H6.5816V37.4769L8.70771 38.2992L8.1441 39.7565ZM9.2265 40.3839L10.2086 39.1686L11.9805 40.6005L10.0065 41.7378L9.2265 40.3839ZM8.1441 41.0075H6.5816V39.7565H8.1441H9.7066V41.0075H8.1441ZM8.1441 39.7565L8.70771 38.2992C9.24956 38.5087 9.75444 38.8016 10.2086 39.1686L9.2265 40.3839L8.24443 41.5992C8.03967 41.4337 7.8166 41.3051 7.58049 41.2138L8.1441 39.7565ZM9.2265 40.3839L10.0065 41.7378L8.9241 42.3614L8.1441 41.0075L7.3641 39.6536L8.4465 39.03L9.2265 40.3839Z" fill="#D40008" mask="url(#path-6-inside-2_57_6)"/>
<path d="M8.1441 41.0075L8.9241 42.3614L6.5816 43.7109V41.0075H8.1441ZM8.1441 39.7565H6.5816V37.4769L8.70771 38.2992L8.1441 39.7565ZM9.2265 40.3839L10.2086 39.1686L11.9805 40.6005L10.0065 41.7378L9.2265 40.3839ZM8.1441 41.0075H6.5816V39.7565H8.1441H9.7066V41.0075H8.1441ZM8.1441 39.7565L8.70771 38.2992C9.24956 38.5087 9.75444 38.8016 10.2086 39.1686L9.2265 40.3839L8.24443 41.5992C8.03967 41.4337 7.8166 41.3051 7.58049 41.2138L8.1441 39.7565ZM9.2265 40.3839L10.0065 41.7378L8.9241 42.3614L8.1441 41.0075L7.3641 39.6536L8.4465 39.03L9.2265 40.3839Z" fill="black" fill-opacity="0.2" mask="url(#path-6-inside-2_57_6)"/>
<path d="M10.8104 36.8455C11.3294 37.1662 11.8154 37.5481 12.2567 37.99C13.2515 38.9847 13.948 40.1994 14.3045 41.5251H17.2713C17.6278 40.1993 18.3252 38.9851 19.3192 37.9919H19.3182C19.7607 37.549 20.2477 37.1666 20.7674 36.8455H10.8104Z" fill="white"/>
<path d="M10.8104 36.8455C11.3294 37.1662 11.8154 37.5481 12.2567 37.99C13.2515 38.9847 13.948 40.1994 14.3045 41.5251H17.2713C17.6278 40.1993 18.3252 38.9851 19.3192 37.9919H19.3182C19.7607 37.549 20.2477 37.1666 20.7674 36.8455H10.8104Z" stroke="#D40008"/>
<path d="M10.8104 36.8455C11.3294 37.1662 11.8154 37.5481 12.2567 37.99C13.2515 38.9847 13.948 40.1994 14.3045 41.5251H17.2713C17.6278 40.1993 18.3252 38.9851 19.3192 37.9919H19.3182C19.7607 37.549 20.2477 37.1666 20.7674 36.8455H10.8104Z" stroke="black" stroke-opacity="0.2"/>
<mask id="path-9-inside-3_57_6" fill="white">
<path d="M5.14874 39.7565V41.0085L4.06634 40.384C4.39591 40.1177 4.75989 39.9069 5.14874 39.7565Z"/>
</mask>
<path d="M5.14874 39.7565V41.0085L4.06634 40.384C4.39591 40.1177 4.75989 39.9069 5.14874 39.7565Z" fill="black"/>
<path d="M5.14874 39.7565L4.58497 38.2992L6.71124 37.4766V39.7565H5.14874ZM5.14874 41.0085H6.71124V43.7139L4.36791 42.3619L5.14874 41.0085ZM4.06634 40.384L3.2855 41.7374L1.31358 40.5997L3.08421 39.1687L4.06634 40.384ZM5.14874 39.7565H6.71124V41.0085H5.14874H3.58624V39.7565H5.14874ZM5.14874 41.0085L4.36791 42.3619L3.2855 41.7374L4.06634 40.384L4.84718 39.0306L5.92958 39.6551L5.14874 41.0085ZM4.06634 40.384L3.08421 39.1687C3.53846 38.8016 4.04331 38.5088 4.58497 38.2992L5.14874 39.7565L5.71252 41.2137C5.47646 41.305 5.25336 41.4337 5.04847 41.5992L4.06634 40.384Z" fill="#D40008" mask="url(#path-9-inside-3_57_6)"/>
<path d="M5.14874 39.7565L4.58497 38.2992L6.71124 37.4766V39.7565H5.14874ZM5.14874 41.0085H6.71124V43.7139L4.36791 42.3619L5.14874 41.0085ZM4.06634 40.384L3.2855 41.7374L1.31358 40.5997L3.08421 39.1687L4.06634 40.384ZM5.14874 39.7565H6.71124V41.0085H5.14874H3.58624V39.7565H5.14874ZM5.14874 41.0085L4.36791 42.3619L3.2855 41.7374L4.06634 40.384L4.84718 39.0306L5.92958 39.6551L5.14874 41.0085ZM4.06634 40.384L3.08421 39.1687C3.53846 38.8016 4.04331 38.5088 4.58497 38.2992L5.14874 39.7565L5.71252 41.2137C5.47646 41.305 5.25336 41.4337 5.04847 41.5992L4.06634 40.384Z" fill="black" fill-opacity="0.2" mask="url(#path-9-inside-3_57_6)"/>
</g>
<defs>
<clipPath id="clip0_57_6">
<rect width="65" height="65" fill="white" transform="matrix(-1 0 0 1 65 0)"/>
</clipPath>
</defs>
</svg>
