<svg width="65" height="65" viewBox="0 0 65 65" fill="none" xmlns="http://www.w3.org/2000/svg">
<g clip-path="url(#clip0_16_92)">
<path d="M40.0695 37.4546C41.7643 37.4546 43.3061 38.1438 44.4152 39.2544H44.4161C45.5278 40.3643 46.2168 41.9066 46.2169 43.6001C46.2169 45.2956 45.5278 46.8366 44.4161 47.9468L44.4152 47.9478C43.306 49.0584 41.7646 49.7484 40.0704 49.7476H40.0695C38.3752 49.7485 36.8341 49.0589 35.7238 47.9478V47.9468C34.6129 46.8366 33.924 45.2956 33.924 43.6001C33.924 41.9064 34.6128 40.3644 35.7238 39.2544C36.8339 38.1434 38.3749 37.4547 40.0695 37.4546ZM39.2999 44.6909C39.0447 44.5872 38.7528 44.6045 38.5099 44.7427L38.5079 44.7437L35.9659 46.2114L35.4669 46.5005L35.8234 46.9536C35.9536 47.1194 36.0932 47.2782 36.2433 47.4282C37.05 48.2349 38.1057 48.7855 39.2892 48.9565L39.8615 49.0396V45.5259C39.8615 45.202 39.6879 44.9069 39.4122 44.7456L39.4073 44.7427L39.2999 44.6909ZM41.631 44.7437C41.3872 44.6038 41.0955 44.5872 40.8409 44.6899L40.7345 44.7417L40.7257 44.7466C40.4522 44.908 40.2794 45.2026 40.2794 45.5259V49.0396L40.8517 48.9565C41.9604 48.7961 42.9576 48.3023 43.7433 47.5767L43.8976 47.4282C44.0477 47.2781 44.1873 47.1194 44.3175 46.9536L44.674 46.4995L44.1749 46.2114L41.632 44.7437H41.631ZM35.0411 41.6001C34.7952 42.2176 34.6584 42.8934 34.6583 43.6001C34.6583 44.309 34.7953 44.9831 35.0411 45.6021L35.255 46.1401L35.756 45.8501L38.298 44.3823L38.297 44.3813C38.5797 44.2199 38.7501 43.9207 38.7501 43.6001C38.75 43.2775 38.577 42.9788 38.296 42.8188L35.756 41.3521L35.255 41.063L35.0411 41.6001ZM44.3849 41.3521L41.8448 42.8188C41.5635 42.9789 41.3909 43.2775 41.3907 43.6001C41.3907 43.9205 41.5606 44.2198 41.8419 44.3813V44.3823L44.3849 45.8501L44.8859 46.1401L45.0997 45.6021C45.3456 44.9827 45.4816 44.3091 45.4825 43.6011V43.6001C45.4816 42.8942 45.3459 42.2181 45.0997 41.6001L44.8859 41.063L44.3849 41.3521ZM40.0695 42.3657C39.3865 42.3659 38.8351 42.9206 38.8351 43.6021C38.8353 44.283 39.3867 44.8372 40.0695 44.8374C40.7517 44.8374 41.3055 44.284 41.3058 43.6021C41.3058 42.9197 40.7518 42.3657 40.0695 42.3657ZM39.2892 38.2456C38.1055 38.4167 37.0496 38.9678 36.2433 39.7729L36.2413 39.7749C36.0922 39.925 35.9538 40.083 35.8243 40.2466L35.465 40.7007L35.9659 40.9897L38.5079 42.4575C38.787 42.6185 39.1311 42.6188 39.4103 42.4575L39.4093 42.4565C39.6879 42.2958 39.8613 41.9999 39.8615 41.6772V38.1626L39.2892 38.2456ZM40.2794 41.6772C40.2795 42 40.4521 42.2967 40.7286 42.4575L40.7316 42.4585C41.0103 42.618 41.3521 42.6191 41.632 42.4575L44.174 40.9907L44.6749 40.7017L44.3165 40.2476C44.1869 40.0834 44.0478 39.9252 43.8986 39.7749L43.8976 39.7729L43.7433 39.6255C42.9579 38.9007 41.9607 38.4061 40.8517 38.2456L40.8156 38.2397H40.2794V41.6772Z" fill="white"/>
<path d="M40.0695 37.4546C41.7643 37.4546 43.3061 38.1438 44.4152 39.2544H44.4161C45.5278 40.3643 46.2168 41.9066 46.2169 43.6001C46.2169 45.2956 45.5278 46.8366 44.4161 47.9468L44.4152 47.9478C43.306 49.0584 41.7646 49.7484 40.0704 49.7476H40.0695C38.3752 49.7485 36.8341 49.0589 35.7238 47.9478V47.9468C34.6129 46.8366 33.924 45.2956 33.924 43.6001C33.924 41.9064 34.6128 40.3644 35.7238 39.2544C36.8339 38.1434 38.3749 37.4547 40.0695 37.4546ZM39.2999 44.6909C39.0447 44.5872 38.7528 44.6045 38.5099 44.7427L38.5079 44.7437L35.9659 46.2114L35.4669 46.5005L35.8234 46.9536C35.9536 47.1194 36.0932 47.2782 36.2433 47.4282C37.05 48.2349 38.1057 48.7855 39.2892 48.9565L39.8615 49.0396V45.5259C39.8615 45.202 39.6879 44.9069 39.4122 44.7456L39.4073 44.7427L39.2999 44.6909ZM41.631 44.7437C41.3872 44.6038 41.0955 44.5872 40.8409 44.6899L40.7345 44.7417L40.7257 44.7466C40.4522 44.908 40.2794 45.2026 40.2794 45.5259V49.0396L40.8517 48.9565C41.9604 48.7961 42.9576 48.3023 43.7433 47.5767L43.8976 47.4282C44.0477 47.2781 44.1873 47.1194 44.3175 46.9536L44.674 46.4995L44.1749 46.2114L41.632 44.7437H41.631ZM35.0411 41.6001C34.7952 42.2176 34.6584 42.8934 34.6583 43.6001C34.6583 44.309 34.7953 44.9831 35.0411 45.6021L35.255 46.1401L35.756 45.8501L38.298 44.3823L38.297 44.3813C38.5797 44.2199 38.7501 43.9207 38.7501 43.6001C38.75 43.2775 38.577 42.9788 38.296 42.8188L35.756 41.3521L35.255 41.063L35.0411 41.6001ZM44.3849 41.3521L41.8448 42.8188C41.5635 42.9789 41.3909 43.2775 41.3907 43.6001C41.3907 43.9205 41.5606 44.2198 41.8419 44.3813V44.3823L44.3849 45.8501L44.8859 46.1401L45.0997 45.6021C45.3456 44.9827 45.4816 44.3091 45.4825 43.6011V43.6001C45.4816 42.8942 45.3459 42.2181 45.0997 41.6001L44.8859 41.063L44.3849 41.3521ZM40.0695 42.3657C39.3865 42.3659 38.8351 42.9206 38.8351 43.6021C38.8353 44.283 39.3867 44.8372 40.0695 44.8374C40.7517 44.8374 41.3055 44.284 41.3058 43.6021C41.3058 42.9197 40.7518 42.3657 40.0695 42.3657ZM39.2892 38.2456C38.1055 38.4167 37.0496 38.9678 36.2433 39.7729L36.2413 39.7749C36.0922 39.925 35.9538 40.083 35.8243 40.2466L35.465 40.7007L35.9659 40.9897L38.5079 42.4575C38.787 42.6185 39.1311 42.6188 39.4103 42.4575L39.4093 42.4565C39.6879 42.2958 39.8613 41.9999 39.8615 41.6772V38.1626L39.2892 38.2456ZM40.2794 41.6772C40.2795 42 40.4521 42.2967 40.7286 42.4575L40.7316 42.4585C41.0103 42.618 41.3521 42.6191 41.632 42.4575L44.174 40.9907L44.6749 40.7017L44.3165 40.2476C44.1869 40.0834 44.0478 39.9252 43.8986 39.7749L43.8976 39.7729L43.7433 39.6255C42.9579 38.9007 41.9607 38.4061 40.8517 38.2456L40.8156 38.2397H40.2794V41.6772Z" stroke="#D40008"/>
<path d="M40.0695 37.4546C41.7643 37.4546 43.3061 38.1438 44.4152 39.2544H44.4161C45.5278 40.3643 46.2168 41.9066 46.2169 43.6001C46.2169 45.2956 45.5278 46.8366 44.4161 47.9468L44.4152 47.9478C43.306 49.0584 41.7646 49.7484 40.0704 49.7476H40.0695C38.3752 49.7485 36.8341 49.0589 35.7238 47.9478V47.9468C34.6129 46.8366 33.924 45.2956 33.924 43.6001C33.924 41.9064 34.6128 40.3644 35.7238 39.2544C36.8339 38.1434 38.3749 37.4547 40.0695 37.4546ZM39.2999 44.6909C39.0447 44.5872 38.7528 44.6045 38.5099 44.7427L38.5079 44.7437L35.9659 46.2114L35.4669 46.5005L35.8234 46.9536C35.9536 47.1194 36.0932 47.2782 36.2433 47.4282C37.05 48.2349 38.1057 48.7855 39.2892 48.9565L39.8615 49.0396V45.5259C39.8615 45.202 39.6879 44.9069 39.4122 44.7456L39.4073 44.7427L39.2999 44.6909ZM41.631 44.7437C41.3872 44.6038 41.0955 44.5872 40.8409 44.6899L40.7345 44.7417L40.7257 44.7466C40.4522 44.908 40.2794 45.2026 40.2794 45.5259V49.0396L40.8517 48.9565C41.9604 48.7961 42.9576 48.3023 43.7433 47.5767L43.8976 47.4282C44.0477 47.2781 44.1873 47.1194 44.3175 46.9536L44.674 46.4995L44.1749 46.2114L41.632 44.7437H41.631ZM35.0411 41.6001C34.7952 42.2176 34.6584 42.8934 34.6583 43.6001C34.6583 44.309 34.7953 44.9831 35.0411 45.6021L35.255 46.1401L35.756 45.8501L38.298 44.3823L38.297 44.3813C38.5797 44.2199 38.7501 43.9207 38.7501 43.6001C38.75 43.2775 38.577 42.9788 38.296 42.8188L35.756 41.3521L35.255 41.063L35.0411 41.6001ZM44.3849 41.3521L41.8448 42.8188C41.5635 42.9789 41.3909 43.2775 41.3907 43.6001C41.3907 43.9205 41.5606 44.2198 41.8419 44.3813V44.3823L44.3849 45.8501L44.8859 46.1401L45.0997 45.6021C45.3456 44.9827 45.4816 44.3091 45.4825 43.6011V43.6001C45.4816 42.8942 45.3459 42.2181 45.0997 41.6001L44.8859 41.063L44.3849 41.3521ZM40.0695 42.3657C39.3865 42.3659 38.8351 42.9206 38.8351 43.6021C38.8353 44.283 39.3867 44.8372 40.0695 44.8374C40.7517 44.8374 41.3055 44.284 41.3058 43.6021C41.3058 42.9197 40.7518 42.3657 40.0695 42.3657ZM39.2892 38.2456C38.1055 38.4167 37.0496 38.9678 36.2433 39.7729L36.2413 39.7749C36.0922 39.925 35.9538 40.083 35.8243 40.2466L35.465 40.7007L35.9659 40.9897L38.5079 42.4575C38.787 42.6185 39.1311 42.6188 39.4103 42.4575L39.4093 42.4565C39.6879 42.2958 39.8613 41.9999 39.8615 41.6772V38.1626L39.2892 38.2456ZM40.2794 41.6772C40.2795 42 40.4521 42.2967 40.7286 42.4575L40.7316 42.4585C41.0103 42.618 41.3521 42.6191 41.632 42.4575L44.174 40.9907L44.6749 40.7017L44.3165 40.2476C44.1869 40.0834 44.0478 39.9252 43.8986 39.7749L43.8976 39.7729L43.7433 39.6255C42.9579 38.9007 41.9607 38.4061 40.8517 38.2456L40.8156 38.2397H40.2794V41.6772Z" stroke="black" stroke-opacity="0.2"/>
<path d="M58.3528 37.4546C60.0483 37.4546 61.5893 38.1435 62.6995 39.2544H62.7005C63.8114 40.3644 64.5002 41.9065 64.5003 43.6001C64.5003 45.2955 63.8113 46.8366 62.7005 47.9468L62.6995 47.9478C61.5894 49.0585 60.0488 49.7484 58.3538 49.7476H58.3528C56.6594 49.7485 55.1173 49.0587 54.0081 47.9478V47.9468L53.805 47.7339C52.8132 46.6436 52.2073 45.1898 52.2073 43.6001C52.2074 42.0123 52.8133 40.5584 53.805 39.4683L54.0081 39.2544C55.1171 38.1436 56.6591 37.4547 58.3528 37.4546ZM59.8069 44.6909C59.5517 44.5871 59.2601 44.6044 59.0169 44.7427L59.012 44.7456C58.7364 44.9069 58.5628 45.202 58.5628 45.5259V49.0396L59.1341 48.9565C60.3178 48.7855 61.3741 48.235 62.181 47.4282C62.3311 47.2781 62.4707 47.1194 62.6009 46.9536L62.9573 46.5005L62.4573 46.2114L59.9163 44.7437L59.9134 44.7427L59.8069 44.6909ZM57.5833 44.6899C57.3287 44.5871 57.0379 44.6039 56.7943 44.7427L56.7923 44.7437L54.2493 46.2114L53.7503 46.4995L54.1058 46.9536C54.236 47.1197 54.3765 47.2781 54.5267 47.4282C55.3342 48.2347 56.3899 48.7855 57.5726 48.9565L57.6087 48.9614H58.1448V45.5259C58.1448 45.2026 57.972 44.908 57.6985 44.7466L57.6898 44.7417L57.5833 44.6899ZM53.3245 41.6001C53.0784 42.2181 52.9418 42.8939 52.9417 43.6001C52.9417 44.3084 53.0777 44.9827 53.3235 45.6021L53.5374 46.1401L54.0384 45.8501L56.5814 44.3813C56.8632 44.2197 57.0325 43.9203 57.0325 43.6001C57.0324 43.3181 56.9009 43.0542 56.679 42.8853L56.5794 42.8188L54.0384 41.3521L53.5384 41.063L53.3245 41.6001ZM62.6683 41.3521L60.1263 42.8208C59.8807 42.9612 59.7186 43.2064 59.6819 43.481L59.6741 43.6001L59.6819 43.7202C59.7185 43.9941 59.8795 44.2401 60.1263 44.3813V44.3823L62.6683 45.8501L63.1693 46.1401L63.3831 45.6021C63.629 44.9826 63.7648 44.3089 63.7659 43.6011V43.6001C63.7648 42.8943 63.6293 42.2182 63.3831 41.6001L63.1693 41.063L62.6683 41.3521ZM58.3528 42.3657C57.6712 42.3659 57.1185 42.9202 57.1185 43.6021C57.1187 44.2834 57.6713 44.8372 58.3528 44.8374C59.0363 44.8374 59.5889 44.2835 59.5892 43.6021C59.5892 42.9201 59.0364 42.3657 58.3528 42.3657ZM57.5726 38.2456C56.3896 38.4167 55.3339 38.9679 54.5267 39.7729L54.5247 39.7749C54.3757 39.925 54.2373 40.083 54.1077 40.2466L53.7484 40.7007L54.2493 40.9897L56.7913 42.4575C57.071 42.6189 57.4139 42.6182 57.6927 42.4585L57.6946 42.4565C57.9716 42.2957 58.1437 41.9997 58.1439 41.6772V38.1626L57.5726 38.2456ZM58.5628 41.6772C58.5629 42.0003 58.7357 42.2968 59.014 42.4575C59.2582 42.5984 59.5523 42.6169 59.8089 42.5112L59.9163 42.4575L62.4573 40.9907L62.9583 40.7007L62.5999 40.2476C62.4702 40.0835 62.3312 39.9252 62.1819 39.7749L62.181 39.7739L62.0267 39.6255C61.2418 38.9005 60.2441 38.406 59.1341 38.2456L58.5628 38.1626V41.6772Z" fill="white"/>
<path d="M58.3528 37.4546C60.0483 37.4546 61.5893 38.1435 62.6995 39.2544H62.7005C63.8114 40.3644 64.5002 41.9065 64.5003 43.6001C64.5003 45.2955 63.8113 46.8366 62.7005 47.9468L62.6995 47.9478C61.5894 49.0585 60.0488 49.7484 58.3538 49.7476H58.3528C56.6594 49.7485 55.1173 49.0587 54.0081 47.9478V47.9468L53.805 47.7339C52.8132 46.6436 52.2073 45.1898 52.2073 43.6001C52.2074 42.0123 52.8133 40.5584 53.805 39.4683L54.0081 39.2544C55.1171 38.1436 56.6591 37.4547 58.3528 37.4546ZM59.8069 44.6909C59.5517 44.5871 59.2601 44.6044 59.0169 44.7427L59.012 44.7456C58.7364 44.9069 58.5628 45.202 58.5628 45.5259V49.0396L59.1341 48.9565C60.3178 48.7855 61.3741 48.235 62.181 47.4282C62.3311 47.2781 62.4707 47.1194 62.6009 46.9536L62.9573 46.5005L62.4573 46.2114L59.9163 44.7437L59.9134 44.7427L59.8069 44.6909ZM57.5833 44.6899C57.3287 44.5871 57.0379 44.6039 56.7943 44.7427L56.7923 44.7437L54.2493 46.2114L53.7503 46.4995L54.1058 46.9536C54.236 47.1197 54.3765 47.2781 54.5267 47.4282C55.3342 48.2347 56.3899 48.7855 57.5726 48.9565L57.6087 48.9614H58.1448V45.5259C58.1448 45.2026 57.972 44.908 57.6985 44.7466L57.6898 44.7417L57.5833 44.6899ZM53.3245 41.6001C53.0784 42.2181 52.9418 42.8939 52.9417 43.6001C52.9417 44.3084 53.0777 44.9827 53.3235 45.6021L53.5374 46.1401L54.0384 45.8501L56.5814 44.3813C56.8632 44.2197 57.0325 43.9203 57.0325 43.6001C57.0324 43.3181 56.9009 43.0542 56.679 42.8853L56.5794 42.8188L54.0384 41.3521L53.5384 41.063L53.3245 41.6001ZM62.6683 41.3521L60.1263 42.8208C59.8807 42.9612 59.7186 43.2064 59.6819 43.481L59.6741 43.6001L59.6819 43.7202C59.7185 43.9941 59.8795 44.2401 60.1263 44.3813V44.3823L62.6683 45.8501L63.1693 46.1401L63.3831 45.6021C63.629 44.9826 63.7648 44.3089 63.7659 43.6011V43.6001C63.7648 42.8943 63.6293 42.2182 63.3831 41.6001L63.1693 41.063L62.6683 41.3521ZM58.3528 42.3657C57.6712 42.3659 57.1185 42.9202 57.1185 43.6021C57.1187 44.2834 57.6713 44.8372 58.3528 44.8374C59.0363 44.8374 59.5889 44.2835 59.5892 43.6021C59.5892 42.9201 59.0364 42.3657 58.3528 42.3657ZM57.5726 38.2456C56.3896 38.4167 55.3339 38.9679 54.5267 39.7729L54.5247 39.7749C54.3757 39.925 54.2373 40.083 54.1077 40.2466L53.7484 40.7007L54.2493 40.9897L56.7913 42.4575C57.071 42.6189 57.4139 42.6182 57.6927 42.4585L57.6946 42.4565C57.9716 42.2957 58.1437 41.9997 58.1439 41.6772V38.1626L57.5726 38.2456ZM58.5628 41.6772C58.5629 42.0003 58.7357 42.2968 59.014 42.4575C59.2582 42.5984 59.5523 42.6169 59.8089 42.5112L59.9163 42.4575L62.4573 40.9907L62.9583 40.7007L62.5999 40.2476C62.4702 40.0835 62.3312 39.9252 62.1819 39.7749L62.181 39.7739L62.0267 39.6255C61.2418 38.9005 60.2441 38.406 59.1341 38.2456L58.5628 38.1626V41.6772Z" stroke="#D40008"/>
<path d="M58.3528 37.4546C60.0483 37.4546 61.5893 38.1435 62.6995 39.2544H62.7005C63.8114 40.3644 64.5002 41.9065 64.5003 43.6001C64.5003 45.2955 63.8113 46.8366 62.7005 47.9468L62.6995 47.9478C61.5894 49.0585 60.0488 49.7484 58.3538 49.7476H58.3528C56.6594 49.7485 55.1173 49.0587 54.0081 47.9478V47.9468L53.805 47.7339C52.8132 46.6436 52.2073 45.1898 52.2073 43.6001C52.2074 42.0123 52.8133 40.5584 53.805 39.4683L54.0081 39.2544C55.1171 38.1436 56.6591 37.4547 58.3528 37.4546ZM59.8069 44.6909C59.5517 44.5871 59.2601 44.6044 59.0169 44.7427L59.012 44.7456C58.7364 44.9069 58.5628 45.202 58.5628 45.5259V49.0396L59.1341 48.9565C60.3178 48.7855 61.3741 48.235 62.181 47.4282C62.3311 47.2781 62.4707 47.1194 62.6009 46.9536L62.9573 46.5005L62.4573 46.2114L59.9163 44.7437L59.9134 44.7427L59.8069 44.6909ZM57.5833 44.6899C57.3287 44.5871 57.0379 44.6039 56.7943 44.7427L56.7923 44.7437L54.2493 46.2114L53.7503 46.4995L54.1058 46.9536C54.236 47.1197 54.3765 47.2781 54.5267 47.4282C55.3342 48.2347 56.3899 48.7855 57.5726 48.9565L57.6087 48.9614H58.1448V45.5259C58.1448 45.2026 57.972 44.908 57.6985 44.7466L57.6898 44.7417L57.5833 44.6899ZM53.3245 41.6001C53.0784 42.2181 52.9418 42.8939 52.9417 43.6001C52.9417 44.3084 53.0777 44.9827 53.3235 45.6021L53.5374 46.1401L54.0384 45.8501L56.5814 44.3813C56.8632 44.2197 57.0325 43.9203 57.0325 43.6001C57.0324 43.3181 56.9009 43.0542 56.679 42.8853L56.5794 42.8188L54.0384 41.3521L53.5384 41.063L53.3245 41.6001ZM62.6683 41.3521L60.1263 42.8208C59.8807 42.9612 59.7186 43.2064 59.6819 43.481L59.6741 43.6001L59.6819 43.7202C59.7185 43.9941 59.8795 44.2401 60.1263 44.3813V44.3823L62.6683 45.8501L63.1693 46.1401L63.3831 45.6021C63.629 44.9826 63.7648 44.3089 63.7659 43.6011V43.6001C63.7648 42.8943 63.6293 42.2182 63.3831 41.6001L63.1693 41.063L62.6683 41.3521ZM58.3528 42.3657C57.6712 42.3659 57.1185 42.9202 57.1185 43.6021C57.1187 44.2834 57.6713 44.8372 58.3528 44.8374C59.0363 44.8374 59.5889 44.2835 59.5892 43.6021C59.5892 42.9201 59.0364 42.3657 58.3528 42.3657ZM57.5726 38.2456C56.3896 38.4167 55.3339 38.9679 54.5267 39.7729L54.5247 39.7749C54.3757 39.925 54.2373 40.083 54.1077 40.2466L53.7484 40.7007L54.2493 40.9897L56.7913 42.4575C57.071 42.6189 57.4139 42.6182 57.6927 42.4585L57.6946 42.4565C57.9716 42.2957 58.1437 41.9997 58.1439 41.6772V38.1626L57.5726 38.2456ZM58.5628 41.6772C58.5629 42.0003 58.7357 42.2968 59.014 42.4575C59.2582 42.5984 59.5523 42.6169 59.8089 42.5112L59.9163 42.4575L62.4573 40.9907L62.9583 40.7007L62.5999 40.2476C62.4702 40.0835 62.3312 39.9252 62.1819 39.7749L62.181 39.7739L62.0267 39.6255C61.2418 38.9005 60.2441 38.406 59.1341 38.2456L58.5628 38.1626V41.6772Z" stroke="black" stroke-opacity="0.2"/>
<path d="M6.83673 24.6472C8.50748 24.3615 9.93936 24.8162 11.2108 25.8904C12.5156 26.993 13.6643 28.7648 14.6248 31.0994L14.8299 31.5964L15.0057 32.0798C15.1147 32.3795 15.2202 32.6748 15.3201 32.9763L15.5477 33.6619H26.6229C27.2119 33.6619 28.3837 33.9061 29.4119 34.991C30.3367 35.9667 31.2356 37.722 31.3943 40.8533H30.7098L29.6219 37.783L29.3914 37.1316L28.7 37.1169L27.1658 37.0857L25.5604 37.0525L26.2391 38.5076L30.5125 47.6785L30.9539 48.6765H30.0867L26.157 42.4294L25.8631 41.9617H22.6922L23.3348 43.3757L24.3524 45.615L21.4813 48.4851L21.1883 48.1912L22.9402 46.2654L23.5145 45.6345L22.9813 44.9685L20.8758 42.3367L20.576 41.9617H13.1766L13.2977 43.071L13.9149 48.6765H12.9276L11.117 41.2136L10.8055 39.9304L9.65509 40.5789L7.82013 41.6111L7.28497 41.9119L7.31134 42.5251L7.43146 45.364L6.92853 45.4343L5.92853 41.0203L9.77325 38.4763L10.3592 38.0886L10.1932 37.407L8.62677 30.949L8.61212 30.8904L8.59161 30.8347L8.50958 30.6335C8.41808 30.4312 8.2966 30.2275 8.1297 30.0593C7.88339 29.8112 7.43333 29.5623 6.89532 29.7361C6.45925 29.8772 6.23813 30.2198 6.14337 30.406C6.03304 30.6229 5.97403 30.8575 5.95001 31.073C5.93002 31.2514 5.87974 32.253 5.83673 33.1375C5.82238 33.4325 5.80804 33.7245 5.79572 33.9841H4.01935C3.92228 33.5583 3.79481 33.0019 3.66486 32.4294C3.39006 31.219 3.10775 29.9635 3.05353 29.697C3.00581 29.4622 2.97358 29.2363 2.95685 29.0222L2.92072 28.5554L2.59943 28.3279L1.54083 27.0535L2.83185 26.9597L3.30841 26.9246L3.5799 26.533C4.26264 25.5501 5.46314 24.8801 6.83575 24.6472H6.83673ZM55.282 15.7527C56.0462 15.7527 56.502 16.0156 57.0086 16.366C57.4766 16.6897 58.2495 17.3337 59.3416 17.3337C60.2531 17.3337 60.9976 17.0474 61.5789 16.8396C61.8383 16.7469 62.0788 16.6639 62.3201 16.5994V34.5642H40.1248V16.6003C40.3658 16.6648 40.6062 16.7471 40.8651 16.8396C41.4462 17.0473 42.1908 17.3337 43.1024 17.3337C44.1944 17.3337 44.9673 16.6896 45.4354 16.366C45.9421 16.0156 46.3982 15.7527 47.1629 15.7527C47.927 15.7527 48.3828 16.0156 48.8895 16.366C49.3575 16.6897 50.1304 17.3337 51.2225 17.3337C52.3139 17.3337 53.0866 16.6896 53.5545 16.366C54.0613 16.0155 54.5178 15.7527 55.282 15.7527Z" fill="white"/>
<path d="M6.83673 24.6472C8.50748 24.3615 9.93936 24.8162 11.2108 25.8904C12.5156 26.993 13.6643 28.7648 14.6248 31.0994L14.8299 31.5964L15.0057 32.0798C15.1147 32.3795 15.2202 32.6748 15.3201 32.9763L15.5477 33.6619H26.6229C27.2119 33.6619 28.3837 33.9061 29.4119 34.991C30.3367 35.9667 31.2356 37.722 31.3943 40.8533H30.7098L29.6219 37.783L29.3914 37.1316L28.7 37.1169L27.1658 37.0857L25.5604 37.0525L26.2391 38.5076L30.5125 47.6785L30.9539 48.6765H30.0867L26.157 42.4294L25.8631 41.9617H22.6922L23.3348 43.3757L24.3524 45.615L21.4813 48.4851L21.1883 48.1912L22.9402 46.2654L23.5145 45.6345L22.9813 44.9685L20.8758 42.3367L20.576 41.9617H13.1766L13.2977 43.071L13.9149 48.6765H12.9276L11.117 41.2136L10.8055 39.9304L9.65509 40.5789L7.82013 41.6111L7.28497 41.9119L7.31134 42.5251L7.43146 45.364L6.92853 45.4343L5.92853 41.0203L9.77325 38.4763L10.3592 38.0886L10.1932 37.407L8.62677 30.949L8.61212 30.8904L8.59161 30.8347L8.50958 30.6335C8.41808 30.4312 8.2966 30.2275 8.1297 30.0593C7.88339 29.8112 7.43333 29.5623 6.89532 29.7361C6.45925 29.8772 6.23813 30.2198 6.14337 30.406C6.03304 30.6229 5.97403 30.8575 5.95001 31.073C5.93002 31.2514 5.87974 32.253 5.83673 33.1375C5.82238 33.4325 5.80804 33.7245 5.79572 33.9841H4.01935C3.92228 33.5583 3.79481 33.0019 3.66486 32.4294C3.39006 31.219 3.10775 29.9635 3.05353 29.697C3.00581 29.4622 2.97358 29.2363 2.95685 29.0222L2.92072 28.5554L2.59943 28.3279L1.54083 27.0535L2.83185 26.9597L3.30841 26.9246L3.5799 26.533C4.26264 25.5501 5.46314 24.8801 6.83575 24.6472H6.83673ZM55.282 15.7527C56.0462 15.7527 56.502 16.0156 57.0086 16.366C57.4766 16.6897 58.2495 17.3337 59.3416 17.3337C60.2531 17.3337 60.9976 17.0474 61.5789 16.8396C61.8383 16.7469 62.0788 16.6639 62.3201 16.5994V34.5642H40.1248V16.6003C40.3658 16.6648 40.6062 16.7471 40.8651 16.8396C41.4462 17.0473 42.1908 17.3337 43.1024 17.3337C44.1944 17.3337 44.9673 16.6896 45.4354 16.366C45.9421 16.0156 46.3982 15.7527 47.1629 15.7527C47.927 15.7527 48.3828 16.0156 48.8895 16.366C49.3575 16.6897 50.1304 17.3337 51.2225 17.3337C52.3139 17.3337 53.0866 16.6896 53.5545 16.366C54.0613 16.0155 54.5178 15.7527 55.282 15.7527Z" stroke="#D40008" stroke-width="2"/>
<path d="M6.83673 24.6472C8.50748 24.3615 9.93936 24.8162 11.2108 25.8904C12.5156 26.993 13.6643 28.7648 14.6248 31.0994L14.8299 31.5964L15.0057 32.0798C15.1147 32.3795 15.2202 32.6748 15.3201 32.9763L15.5477 33.6619H26.6229C27.2119 33.6619 28.3837 33.9061 29.4119 34.991C30.3367 35.9667 31.2356 37.722 31.3943 40.8533H30.7098L29.6219 37.783L29.3914 37.1316L28.7 37.1169L27.1658 37.0857L25.5604 37.0525L26.2391 38.5076L30.5125 47.6785L30.9539 48.6765H30.0867L26.157 42.4294L25.8631 41.9617H22.6922L23.3348 43.3757L24.3524 45.615L21.4813 48.4851L21.1883 48.1912L22.9402 46.2654L23.5145 45.6345L22.9813 44.9685L20.8758 42.3367L20.576 41.9617H13.1766L13.2977 43.071L13.9149 48.6765H12.9276L11.117 41.2136L10.8055 39.9304L9.65509 40.5789L7.82013 41.6111L7.28497 41.9119L7.31134 42.5251L7.43146 45.364L6.92853 45.4343L5.92853 41.0203L9.77325 38.4763L10.3592 38.0886L10.1932 37.407L8.62677 30.949L8.61212 30.8904L8.59161 30.8347L8.50958 30.6335C8.41808 30.4312 8.2966 30.2275 8.1297 30.0593C7.88339 29.8112 7.43333 29.5623 6.89532 29.7361C6.45925 29.8772 6.23813 30.2198 6.14337 30.406C6.03304 30.6229 5.97403 30.8575 5.95001 31.073C5.93002 31.2514 5.87974 32.253 5.83673 33.1375C5.82238 33.4325 5.80804 33.7245 5.79572 33.9841H4.01935C3.92228 33.5583 3.79481 33.0019 3.66486 32.4294C3.39006 31.219 3.10775 29.9635 3.05353 29.697C3.00581 29.4622 2.97358 29.2363 2.95685 29.0222L2.92072 28.5554L2.59943 28.3279L1.54083 27.0535L2.83185 26.9597L3.30841 26.9246L3.5799 26.533C4.26264 25.5501 5.46314 24.8801 6.83575 24.6472H6.83673ZM55.282 15.7527C56.0462 15.7527 56.502 16.0156 57.0086 16.366C57.4766 16.6897 58.2495 17.3337 59.3416 17.3337C60.2531 17.3337 60.9976 17.0474 61.5789 16.8396C61.8383 16.7469 62.0788 16.6639 62.3201 16.5994V34.5642H40.1248V16.6003C40.3658 16.6648 40.6062 16.7471 40.8651 16.8396C41.4462 17.0473 42.1908 17.3337 43.1024 17.3337C44.1944 17.3337 44.9673 16.6896 45.4354 16.366C45.9421 16.0156 46.3982 15.7527 47.1629 15.7527C47.927 15.7527 48.3828 16.0156 48.8895 16.366C49.3575 16.6897 50.1304 17.3337 51.2225 17.3337C52.3139 17.3337 53.0866 16.6896 53.5545 16.366C54.0613 16.0155 54.5178 15.7527 55.282 15.7527Z" stroke="black" stroke-opacity="0.2" stroke-width="2"/>
<mask id="path-4-inside-1_16_92" fill="white">
<path d="M63.3016 36.3455H59.9768C61.1254 36.6003 62.1943 37.1233 63.1062 37.8858L63.3016 36.3455Z"/>
</mask>
<path d="M63.3016 36.3455H59.9768C61.1254 36.6003 62.1943 37.1233 63.1062 37.8858L63.3016 36.3455Z" fill="black"/>
<path d="M63.3016 36.3455L64.8517 36.5421L65.0748 34.783H63.3016V36.3455ZM59.9768 36.3455V34.783L59.6384 37.8709L59.9768 36.3455ZM63.1062 37.8858L62.1039 39.0845L64.2966 40.9179L64.6563 38.0824L63.1062 37.8858ZM63.3016 36.3455V34.783H59.9768V36.3455V37.908H63.3016V36.3455ZM59.9768 36.3455L59.6384 37.8709C60.5438 38.0717 61.3849 38.4832 62.1039 39.0845L63.1062 37.8858L64.1085 36.6871C63.0037 35.7634 61.7069 35.1288 60.3152 34.82L59.9768 36.3455ZM63.1062 37.8858L64.6563 38.0824L64.8517 36.5421L63.3016 36.3455L61.7515 36.1488L61.5561 37.6892L63.1062 37.8858Z" fill="#D40008" mask="url(#path-4-inside-1_16_92)"/>
<path d="M63.3016 36.3455L64.8517 36.5421L65.0748 34.783H63.3016V36.3455ZM59.9768 36.3455V34.783L59.6384 37.8709L59.9768 36.3455ZM63.1062 37.8858L62.1039 39.0845L64.2966 40.9179L64.6563 38.0824L63.1062 37.8858ZM63.3016 36.3455V34.783H59.9768V36.3455V37.908H63.3016V36.3455ZM59.9768 36.3455L59.6384 37.8709C60.5438 38.0717 61.3849 38.4832 62.1039 39.0845L63.1062 37.8858L64.1085 36.6871C63.0037 35.7634 61.7069 35.1288 60.3152 34.82L59.9768 36.3455ZM63.1062 37.8858L64.6563 38.0824L64.8517 36.5421L63.3016 36.3455L61.7515 36.1488L61.5561 37.6892L63.1062 37.8858Z" fill="black" fill-opacity="0.2" mask="url(#path-4-inside-1_16_92)"/>
<mask id="path-6-inside-2_16_92" fill="white">
<path d="M56.8559 41.0075V39.7565C56.4669 39.9069 56.1029 40.1177 55.7735 40.3839L56.8559 41.0075Z"/>
</mask>
<path d="M56.8559 41.0075V39.7565C56.4669 39.9069 56.1029 40.1177 55.7735 40.3839L56.8559 41.0075Z" fill="black"/>
<path d="M56.8559 41.0075L56.0759 42.3614L58.4184 43.7109V41.0075H56.8559ZM56.8559 39.7565H58.4184V37.4769L56.2923 38.2992L56.8559 39.7565ZM55.7735 40.3839L54.7914 39.1686L53.0195 40.6005L54.9935 41.7378L55.7735 40.3839ZM56.8559 41.0075H58.4184V39.7565H56.8559H55.2934V41.0075H56.8559ZM56.8559 39.7565L56.2923 38.2992C55.7504 38.5087 55.2456 38.8016 54.7914 39.1686L55.7735 40.3839L56.7556 41.5992C56.9603 41.4337 57.1834 41.3051 57.4195 41.2138L56.8559 39.7565ZM55.7735 40.3839L54.9935 41.7378L56.0759 42.3614L56.8559 41.0075L57.6359 39.6536L56.5535 39.03L55.7735 40.3839Z" fill="#D40008" mask="url(#path-6-inside-2_16_92)"/>
<path d="M56.8559 41.0075L56.0759 42.3614L58.4184 43.7109V41.0075H56.8559ZM56.8559 39.7565H58.4184V37.4769L56.2923 38.2992L56.8559 39.7565ZM55.7735 40.3839L54.7914 39.1686L53.0195 40.6005L54.9935 41.7378L55.7735 40.3839ZM56.8559 41.0075H58.4184V39.7565H56.8559H55.2934V41.0075H56.8559ZM56.8559 39.7565L56.2923 38.2992C55.7504 38.5087 55.2456 38.8016 54.7914 39.1686L55.7735 40.3839L56.7556 41.5992C56.9603 41.4337 57.1834 41.3051 57.4195 41.2138L56.8559 39.7565ZM55.7735 40.3839L54.9935 41.7378L56.0759 42.3614L56.8559 41.0075L57.6359 39.6536L56.5535 39.03L55.7735 40.3839Z" fill="black" fill-opacity="0.2" mask="url(#path-6-inside-2_16_92)"/>
<path d="M54.1896 36.8455C53.6706 37.1662 53.1846 37.5481 52.7433 37.99C51.7485 38.9847 51.052 40.1994 50.6955 41.5251H47.7287C47.3722 40.1993 46.6748 38.9851 45.6808 37.9919H45.6818C45.2393 37.549 44.7523 37.1666 44.2326 36.8455H54.1896Z" fill="white"/>
<path d="M54.1896 36.8455C53.6706 37.1662 53.1846 37.5481 52.7433 37.99C51.7485 38.9847 51.052 40.1994 50.6955 41.5251H47.7287C47.3722 40.1993 46.6748 38.9851 45.6808 37.9919H45.6818C45.2393 37.549 44.7523 37.1666 44.2326 36.8455H54.1896Z" stroke="#D40008"/>
<path d="M54.1896 36.8455C53.6706 37.1662 53.1846 37.5481 52.7433 37.99C51.7485 38.9847 51.052 40.1994 50.6955 41.5251H47.7287C47.3722 40.1993 46.6748 38.9851 45.6808 37.9919H45.6818C45.2393 37.549 44.7523 37.1666 44.2326 36.8455H54.1896Z" stroke="black" stroke-opacity="0.2"/>
<mask id="path-9-inside-3_16_92" fill="white">
<path d="M59.8513 39.7565V41.0085L60.9337 40.384C60.6041 40.1177 60.2401 39.9069 59.8513 39.7565Z"/>
</mask>
<path d="M59.8513 39.7565V41.0085L60.9337 40.384C60.6041 40.1177 60.2401 39.9069 59.8513 39.7565Z" fill="black"/>
<path d="M59.8513 39.7565L60.415 38.2992L58.2888 37.4766V39.7565H59.8513ZM59.8513 41.0085H58.2888V43.7139L60.6321 42.3619L59.8513 41.0085ZM60.9337 40.384L61.7145 41.7374L63.6864 40.5997L61.9158 39.1687L60.9337 40.384ZM59.8513 39.7565H58.2888V41.0085H59.8513H61.4138V39.7565H59.8513ZM59.8513 41.0085L60.6321 42.3619L61.7145 41.7374L60.9337 40.384L60.1528 39.0306L59.0704 39.6551L59.8513 41.0085ZM60.9337 40.384L61.9158 39.1687C61.4615 38.8016 60.9567 38.5088 60.415 38.2992L59.8513 39.7565L59.2875 41.2137C59.5235 41.305 59.7466 41.4337 59.9515 41.5992L60.9337 40.384Z" fill="#D40008" mask="url(#path-9-inside-3_16_92)"/>
<path d="M59.8513 39.7565L60.415 38.2992L58.2888 37.4766V39.7565H59.8513ZM59.8513 41.0085H58.2888V43.7139L60.6321 42.3619L59.8513 41.0085ZM60.9337 40.384L61.7145 41.7374L63.6864 40.5997L61.9158 39.1687L60.9337 40.384ZM59.8513 39.7565H58.2888V41.0085H59.8513H61.4138V39.7565H59.8513ZM59.8513 41.0085L60.6321 42.3619L61.7145 41.7374L60.9337 40.384L60.1528 39.0306L59.0704 39.6551L59.8513 41.0085ZM60.9337 40.384L61.9158 39.1687C61.4615 38.8016 60.9567 38.5088 60.415 38.2992L59.8513 39.7565L59.2875 41.2137C59.5235 41.305 59.7466 41.4337 59.9515 41.5992L60.9337 40.384Z" fill="black" fill-opacity="0.2" mask="url(#path-9-inside-3_16_92)"/>
</g>
<defs>
<clipPath id="clip0_16_92">
<rect width="65" height="65" fill="white"/>
</clipPath>
</defs>
</svg>
