<svg width="82" height="95" viewBox="0 0 82 95" fill="none" xmlns="http://www.w3.org/2000/svg">
<g opacity="0.45">
<path d="M24.0264 89.5803C25.6183 89.0591 26.5379 87.1693 26.0803 85.3593C25.6227 83.5493 23.9613 82.5045 22.3694 83.0257C20.7775 83.547 19.8579 85.4368 20.3155 87.2468C20.7731 89.0568 22.4345 90.1015 24.0264 89.5803Z" stroke="#BF0000" stroke-width="2" stroke-linecap="round" stroke-linejoin="round"/>
<path d="M30.0944 71.61C30.1147 71.6034 30.1566 71.5971 30.2185 71.636C30.2823 71.6761 30.3519 71.7582 30.384 71.8853C30.416 72.0121 30.3952 72.1231 30.36 72.1956C30.3257 72.266 30.2873 72.286 30.2669 72.2927C30.2465 72.2993 30.2053 72.3051 30.1437 72.2664C30.08 72.2263 30.0106 72.145 29.9785 72.0181C29.9463 71.891 29.967 71.7794 30.0023 71.7068C30.0363 71.6369 30.074 71.6168 30.0944 71.61Z" fill="black" stroke="#BF0000" stroke-width="2"/>
<path d="M38.4127 10.6901C38.433 10.6835 38.475 10.6772 38.5369 10.7161C38.6006 10.7562 38.6703 10.8383 38.7024 10.9654C38.7344 11.0922 38.7135 11.2032 38.6783 11.2757C38.6441 11.346 38.6056 11.3661 38.5853 11.3728C38.5649 11.3794 38.5237 11.3851 38.4621 11.3465C38.3984 11.3064 38.329 11.225 38.2968 11.0982C38.2647 10.9711 38.2853 10.8595 38.3206 10.7869C38.3547 10.717 38.3924 10.6969 38.4127 10.6901Z" fill="black" stroke="#BF0000" stroke-width="2"/>
<path d="M67.6114 67.7342L64.593 73.9374" stroke="#BF0000" stroke-width="2" stroke-linecap="round" stroke-linejoin="round"/>
<path d="M63.3754 69.1211L68.829 72.5505" stroke="#BF0000" stroke-width="2" stroke-linecap="round" stroke-linejoin="round"/>
<path d="M11.3994 22.9377C10.0929 25.1286 9.48909 27.7637 9.68939 30.4003L6.40322 37.1539L14.4739 34.5114" stroke="#BF0000" stroke-width="2" stroke-linecap="round" stroke-linejoin="round"/>
<path d="M18.575 50.7341C19.6896 55.1427 20.223 59.0106 23.9856 59.218C25.0775 60.7165 26.5302 61.8203 28.1657 62.394C29.8013 62.9678 31.5487 62.9867 33.1939 62.4484L48.5559 57.4186C50.3348 56.8353 51.9071 55.6291 53.049 53.9717C54.191 52.3142 54.8446 50.2898 54.9169 48.1862C55.7816 47.4482 56.59 46.6284 57.3334 45.7357C59.0758 48.3141 61.3341 50.3822 63.9209 51.7684C66.5077 53.1547 69.3483 53.8189 72.2068 53.706L72.9989 53.6738C69.8932 51.0052 67.6329 47.2627 66.5573 43.008L61.5862 23.3443C60.883 20.5628 59.2369 18.2135 57.0099 16.8131C54.7829 15.4127 52.1575 15.076 49.7113 15.8769C47.265 16.6779 45.1983 18.5509 43.9657 21.0841C42.7332 23.6172 42.4358 26.6029 43.1389 29.3843L31.6094 33.1593C31.1555 33.3292 30.6757 33.3907 30.2 33.34C29.7243 33.2893 29.263 33.1275 28.845 32.8646C28.427 32.6017 28.0612 32.2435 27.7706 31.8123C27.4801 31.3812 27.2709 30.8864 27.1563 30.359L26.0484 25.9766C25.7 24.5911 25.0941 23.3069 24.2717 22.2108C23.4493 21.1147 22.4295 20.2321 21.2812 19.6228" stroke="#BF0000" stroke-width="2" stroke-linecap="round" stroke-linejoin="round"/>
<path d="M21.1438 19.5527C21.3786 19.4498 21.6209 19.3705 21.8678 19.3156C22.7852 19.0153 23.5602 18.3129 24.0224 17.3629C24.4846 16.413 24.5961 15.2934 24.3325 14.2504C24.0688 13.2073 23.4515 12.3263 22.6164 11.8012C21.7812 11.276 20.7967 11.1498 19.8794 11.4501L9.5028 14.8476C8.58546 15.148 7.81043 15.8504 7.34822 16.8003C6.88602 17.7502 6.77449 18.8698 7.03817 19.9129C7.30186 20.9559 7.91916 21.8369 8.75427 22.362C9.58939 22.8872 10.5739 23.0135 11.4913 22.7131C11.5109 22.7067 11.5293 22.7007 11.5478 22.6946L21.1438 19.5527Z" stroke="#BF0000" stroke-width="2" stroke-linecap="round" stroke-linejoin="round"/>
<path d="M15.0361 26.8607C15.372 26.7507 15.9028 26.9502 16.0677 27.6024C16.2325 28.2545 15.8761 28.7446 15.5401 28.8546C15.2042 28.9643 14.6743 28.7644 14.5094 28.1126C14.3446 27.4607 14.7002 26.9709 15.0361 26.8607Z" fill="black" stroke="#BF0000" stroke-width="2"/>
<path d="M11.8087 14.0927L12.4715 16.7145" stroke="#BF0000" stroke-width="2" stroke-linecap="round" stroke-linejoin="round"/>
<path d="M16.4205 12.5827L17.0834 15.2045" stroke="#BF0000" stroke-width="2" stroke-linecap="round" stroke-linejoin="round"/>
<path d="M47.9235 33.4954C47.572 32.1047 47.7207 30.6119 48.3369 29.3453C48.9532 28.0787 49.9866 27.1422 51.2097 26.7417L52.0652 26.4616C52.6749 26.2602 53.3137 26.1987 53.9444 26.2807C54.5751 26.3626 55.1851 26.5864 55.7389 26.939C56.2927 27.2915 56.7793 27.7659 57.1703 28.3344C57.5613 28.9028 57.849 29.5541 58.0166 30.2504C59.5372 36.6012 63.0333 47.0476 70.3616 53.1178" stroke="#BF0000" stroke-width="2" stroke-linecap="round" stroke-linejoin="round"/>
<path d="M44.077 34.6255C44.0108 36.3394 43.4728 37.9866 42.5389 39.3343C41.605 40.682 40.3225 41.6623 38.8725 42.1365L37.7196 42.514C35.8849 43.1147 33.9159 42.8621 32.2456 41.8118C30.5754 40.7615 29.3408 38.9995 28.8134 36.9135L27.1564 30.3589" stroke="#BF0000" stroke-width="2" stroke-linecap="round" stroke-linejoin="round"/>
<path d="M46.0656 42.491C45.9994 44.2049 45.4613 45.852 44.5274 47.1998C43.5936 48.5475 42.311 49.5277 40.8611 50.002L39.7081 50.3795C37.8734 50.9802 35.9044 50.7276 34.2341 49.6773C32.5639 48.627 31.3293 46.865 30.8019 44.779L29.1449 38.2244" stroke="#BF0000" stroke-width="2" stroke-linecap="round" stroke-linejoin="round"/>
<path d="M44.0771 34.6256C44.1105 33.7412 44.0176 32.8565 43.8019 32.006L43.139 29.3842" stroke="#BF0000" stroke-width="2" stroke-linecap="round" stroke-linejoin="round"/>
<path d="M47.9225 58.1824L49.1183 62.9122L38.7417 66.3097L37.5251 61.4973" stroke="#BF0000" stroke-width="2" stroke-linecap="round" stroke-linejoin="round"/>
<path d="M42.3246 65.6674L47.8346 87.4627" stroke="#BF0000" stroke-width="2" stroke-linecap="round" stroke-linejoin="round"/>
<path d="M51.2934 86.3301L45.7834 64.5348" stroke="#BF0000" stroke-width="2" stroke-linecap="round" stroke-linejoin="round"/>
<path d="M11.0151 35.6439L16.7798 33.7564L20.7567 49.4874L18.4716 50.2356C18.0146 50.3853 17.5363 50.4311 17.0639 50.3705C16.5914 50.3099 16.1342 50.144 15.7182 49.8825C15.3022 49.6209 14.9356 49.2686 14.6394 48.8459C14.3432 48.4231 14.1231 47.9381 13.9918 47.4186L11.0151 35.6439Z" stroke="#BF0000" stroke-width="2" stroke-linecap="round" stroke-linejoin="round"/>
</g>
</svg>
