<svg width="91" height="91" viewBox="0 0 91 91" fill="none" xmlns="http://www.w3.org/2000/svg">
<g opacity="0.45" clip-path="url(#clip0_16_167)">
<path d="M86.5129 50.8298C86.4618 50.2071 86.3247 49.4346 86.1306 48.5792C85.6167 45.1302 84.8961 41.728 83.0795 38.6926C79.3188 32.4146 72.4195 30.6665 65.5338 31.6609C65.3895 31.6817 65.2436 31.7028 65.0992 31.7236C62.1437 31.9663 59.1464 32.487 56.3022 32.994C51.1174 33.7427 45.9316 34.4916 40.7469 35.2403C40.7267 35.2432 40.0412 33.9054 39.3169 32.5024C39.2834 32.439 39.2522 32.3753 39.2188 32.3118C38.5255 30.9716 37.8238 29.6225 37.6557 29.3701C36.5433 27.7003 35.2477 26.1471 33.763 24.7944C30.6685 21.975 26.7896 20.1271 22.6458 19.5178C18.9939 18.9812 14.6056 19.1763 11.3086 20.9795C10.534 20.9745 9.79025 20.7027 9.01892 20.4413C8.75934 20.3483 8.49707 20.262 8.23119 20.1931C7.56802 20.0061 6.87225 19.8885 6.10571 19.9992C4.11326 20.287 3.26439 21.4381 4.03487 23.4158C4.13374 23.6696 4.38635 24.051 4.7004 24.4884C5.32405 25.5159 6.3888 26.6185 6.87399 27.6746C6.94074 27.8416 6.97583 27.9829 6.95921 28.0876C6.82007 28.973 6.67999 29.8585 6.54084 30.7438C6.27308 32.4508 6.00393 34.1569 5.73369 35.8642C4.97638 38.9812 3.84296 43.3445 5.27822 45.4942C5.73999 46.2951 6.49629 46.9915 7.7015 47.5316C8.65823 47.954 9.49106 48.0421 10.2461 47.9209C10.3328 47.9133 10.4214 47.9188 10.5074 47.9064C11.269 47.7964 11.9187 47.3661 12.5044 46.8148C14.0712 45.5199 15.3495 43.4426 16.9326 42.1525C17.7285 41.5039 18.606 41.6634 19.4984 42.3499C19.7055 42.5602 19.9214 42.8055 20.1506 43.11C21.1739 44.466 22.1553 45.9196 23.0482 47.4359C25.2298 51.8849 26.8718 57.6094 26.6838 59.4476C26.3058 63.1508 25.4575 66.8381 24.5153 70.4584C24.3027 71.1556 24.099 71.8627 23.9632 72.5588C23.9439 72.6285 23.9263 72.7007 23.907 72.7704C22.9533 76.3095 25.9548 79.0763 29.6006 78.5583C29.3748 78.5897 29.0466 78.6371 29.6067 78.5574C29.8562 78.5214 29.7583 78.5355 29.6102 78.5569C30.0076 78.4983 30.3892 78.3311 30.7589 78.0888C31.5748 77.7468 32.2748 77.1594 32.6864 76.2371C32.8228 75.9322 32.9581 75.6288 33.0934 75.3252C34.2163 73.4046 35.2203 70.8793 36.1755 68.4222C36.893 66.8159 37.6104 65.2096 38.3265 63.6037C38.5238 63.1634 38.7665 62.4726 39.0692 61.7853C39.9038 60.3731 40.7586 59.5756 41.687 59.895C47.2117 61.7953 55.0894 60.4128 59.8776 57.1548C59.9629 57.0962 60.0642 57.0803 60.1651 57.0621C60.2199 57.0529 60.2765 57.0398 60.3296 57.0358C60.9787 57.0407 61.8791 57.6809 62.8512 58.607C62.9493 58.7196 63.0472 58.8334 63.1453 58.9472C64.4773 60.4999 65.8093 62.0528 67.1413 63.6057C67.8229 64.4944 68.3436 65.1967 68.5662 65.4557C69.7941 66.887 71.0223 68.3184 72.2515 69.7508C74.6092 72.4985 79.703 72.0152 81.0005 68.4009C82.1449 65.2705 78.2229 61.2595 76.7696 58.8759C74.6014 55.3137 73.2167 52.451 72.6544 48.329C72.5207 47.3526 71.1888 39.1505 72.5181 39.5959C73.2732 39.8452 73.841 40.4773 74.2735 41.3202C74.933 43.0861 75.3366 45.7453 75.6165 48.1569C75.6706 49.1899 75.688 50.0953 75.7139 50.7046C75.7734 52.1632 75.5231 53.256 76.2622 53.6234C76.2927 53.7164 76.3225 53.7707 76.3546 53.7661C76.4346 53.7545 76.5147 53.743 76.5947 53.7314C76.8522 53.7759 77.1841 53.7706 77.6127 53.7087C80.041 53.358 82.469 53.0074 84.8973 52.6567C85.3033 52.5981 85.5896 52.5056 85.83 52.3978C85.9267 52.3838 86.0233 52.3698 86.1202 52.3559C86.372 52.3195 86.4961 52.0309 86.5274 51.572C86.5621 51.3565 86.5517 51.107 86.5129 50.8298ZM7.64628 45.0816C7.43335 44.882 7.22078 44.6335 7.00722 44.3355C6.81533 43.9099 6.71621 43.3416 6.69481 42.6696C6.81839 41.3233 7.39289 39.605 7.54534 38.6445C7.94223 36.1511 8.33753 33.6577 8.72821 31.1641C8.83488 30.4845 9.70044 27.939 9.17206 27.2672C8.67111 25.5116 6.51848 24.1992 5.99481 22.2785C7.77562 21.9007 9.535 22.4132 10.885 23.6174C11.1537 23.8576 11.9379 25.0519 12.4143 24.9831C13.1932 25.1693 14.7575 24.5923 15.6336 24.6085C17.7913 24.6466 19.9278 25.1619 21.8955 26.0368C25.5728 27.6702 28.568 30.5111 30.9218 33.7297C33.0206 36.6001 34.6159 38.372 38.486 37.8132C46.9738 36.5875 55.4618 35.3617 63.9497 34.136C64.7591 34.0191 65.8219 33.6658 66.6428 33.7471C68.3297 33.5035 69.3807 35.3979 69.9137 36.6919C70.6189 38.4022 69.5796 39.0448 69.5649 40.8663C69.5601 41.3995 69.6033 41.9441 69.6342 42.4869C69.6408 44.8185 69.9595 47.1026 70.5208 49.3262C70.6119 49.865 70.7049 50.4074 70.7883 50.9339C71.4382 55.0372 73.9333 58.5767 76.1114 62.0305C77.1452 63.6702 77.5764 63.5836 76.099 64.6366C75.1113 65.341 74.1221 66.0444 73.1342 66.7478C72.4216 67.2565 70.9502 64.8233 70.4694 64.2625C68.4331 61.8913 63.8029 54.2095 59.9815 54.7614C58.4412 55.0995 57.0324 56.2718 55.5461 56.8253C52.138 58.0949 48.2645 58.6909 44.6379 58.2628C42.4967 58.0103 40.5107 56.6531 38.6654 58.5855C37.5344 59.7675 36.9537 61.526 36.2945 63.0031C35.9151 63.8526 32.2064 72.7386 31.8947 72.63C30.1928 72.0433 28.4922 71.4577 26.7904 70.8712C26.6813 70.8333 28.658 61.6015 28.7899 60.5808C29.7028 53.5183 25.312 45.418 20.6071 40.366C16.2815 35.7209 12.7294 45.9358 9.11636 45.7775C8.65949 45.7005 8.16915 45.4703 7.64628 45.0816Z" fill="#CB0606"/>
<path d="M12.0369 34.4713C14.2442 34.1526 13.75 30.7299 11.5427 31.0486C9.334 31.3676 9.82826 34.7903 12.0369 34.4713Z" fill="black"/>
</g>
<defs>
<clipPath id="clip0_16_167">
<rect width="80.0122" height="80.0122" fill="white" transform="translate(0 11.4358) rotate(-8.21716)"/>
</clipPath>
</defs>
</svg>
