<svg width="99" height="101" viewBox="0 0 99 101" fill="none" xmlns="http://www.w3.org/2000/svg">
<g opacity="0.45" clip-path="url(#clip0_16_135)">
<path d="M66.3222 64.537C66.4844 61.0678 65.9187 57.5532 64.6813 54.2977C68.6913 52.6084 72.0587 49.6478 74.2488 45.8584C79.7787 36.2906 76.4937 24.0077 66.9258 18.4777C57.358 12.9478 45.0751 16.2329 39.5452 25.8008C37.355 29.5901 36.4707 33.9859 37.0087 38.3038C33.57 38.8566 30.2422 40.1209 27.3173 41.9934C23.937 44.1574 21.0818 47.15 19.0603 50.6476C16.8059 54.5482 15.6288 58.9784 15.6561 63.4593C15.6827 67.8067 16.8329 72.1023 18.9829 75.8816C19.0863 76.0635 19.2364 76.2146 19.4176 76.3193L40.5229 88.5175C40.7041 88.6222 40.9098 88.6768 41.1191 88.6757C45.4671 88.6518 49.7635 87.5044 53.5437 85.3572C57.44 83.144 60.6911 79.9125 62.9455 76.012C64.9669 72.514 66.1346 68.5461 66.3222 64.537ZM41.4218 86.3147L20.8773 74.4406C17.0066 67.4114 17.0845 58.7763 21.1009 51.8271C24.7427 45.5261 31.2426 41.2844 38.488 40.4807C38.814 40.4446 39.1103 40.2742 39.3053 40.0106C39.5003 39.747 39.5769 39.4139 39.5162 39.0915C38.7352 34.9416 39.4702 30.6404 41.5857 26.9801C46.4654 18.5376 57.3038 15.6388 65.7464 20.5184C74.189 25.398 77.0878 36.2364 72.2082 44.679C70.0927 48.3391 66.7327 51.1231 62.7469 52.5181C62.4373 52.6265 62.1869 52.8591 62.0557 53.1597C61.9248 53.4604 61.9249 53.8021 62.0564 54.1025C64.977 60.7817 64.5463 68.5312 60.9045 74.8323C56.8881 81.7816 49.4448 86.1597 41.4218 86.3147Z" fill="#C70000"/>
<path d="M47.9111 27.856C44.6634 33.475 46.5928 40.6885 52.2117 43.9361C57.8306 47.1836 65.0442 45.2543 68.2918 39.6354C68.5352 39.2142 68.7461 38.7831 68.932 38.3463C68.958 38.2943 68.9811 38.2413 68.9991 38.1865C71.1856 32.8305 69.1375 26.5298 63.9911 23.5554C58.8446 20.5808 52.3629 21.9515 48.8135 26.5198C48.7749 26.5627 48.7405 26.6094 48.7084 26.6579C48.4228 27.0369 48.1545 27.4348 47.9111 27.856ZM53.3911 41.8954C48.8973 39.2981 47.3545 33.5291 49.9517 29.0354C50.0463 28.8718 50.1462 28.7134 50.249 28.5575C54.3636 28.9788 58.5565 28.2545 62.2969 26.4867C62.6322 30.6102 64.0976 34.605 66.5168 37.96C66.4331 38.1267 66.3456 38.2925 66.251 38.4561C63.6538 42.9498 57.8849 44.4927 53.3911 41.8954ZM67.4224 35.0438C65.9817 32.6046 65.0588 29.873 64.723 27.0551C66.8395 29.1506 67.8239 32.1334 67.4224 35.0438ZM60.593 24.6681C57.9839 25.7838 55.1564 26.3476 52.3238 26.3171C54.6452 24.5165 57.7208 23.8805 60.593 24.6681Z" fill="#C70000"/>
<path d="M60.7217 65.8931C54.6377 62.2237 50.8764 55.522 50.9055 48.4033C50.9072 47.9808 50.6826 47.5897 50.3167 47.3782C49.9507 47.1667 49.4997 47.1673 49.1344 47.3798C42.9269 50.9901 35.1901 51.0473 28.9435 47.529C28.3764 47.2096 27.6578 47.4104 27.3384 47.9775C27.0212 48.5407 27.2171 49.2535 27.7753 49.5761C27.7791 49.5783 27.783 49.5806 27.7868 49.5828C31.2871 51.5543 35.2512 52.5623 39.2501 52.4977C42.4938 52.4454 45.6982 51.6938 48.622 50.3103C48.8805 53.5071 49.8154 56.6339 51.3656 59.4516C53.2784 62.9285 56.0926 65.8539 59.5042 67.9114C60.0591 68.2501 60.7858 68.0682 61.1219 67.5108C61.4583 66.9535 61.2791 66.2293 60.7217 65.8931Z" fill="#C70000"/>
<path d="M61.9692 34.8562L61.1085 34.3588C60.545 34.0331 59.8241 34.2259 59.4984 34.7894C59.1727 35.3529 59.3655 36.0737 59.929 36.3994L60.7898 36.8969C61.3533 37.2226 62.0741 37.0298 62.3998 36.4663C62.7255 35.9028 62.5327 35.1819 61.9692 34.8562Z" fill="#C70000"/>
<path d="M56.2109 31.5281L55.2085 30.9487C54.645 30.623 53.9241 30.8158 53.5985 31.3793C53.2728 31.9428 53.4656 32.6637 54.0291 32.9894L55.0314 33.5687C55.5949 33.8944 56.3158 33.7016 56.6415 33.1381C56.9672 32.5746 56.7744 31.8537 56.2109 31.5281Z" fill="#C70000"/>
<path d="M47.3599 61.3126C45.8789 60.4567 44.1352 60.2512 42.5268 60.6929C42.1065 59.0789 41.0581 57.6704 39.5771 56.8144C36.5606 55.071 32.6881 56.1067 30.9447 59.1232C27.9865 64.2414 31.5455 73.5408 32.7069 76.269C32.8095 76.5103 32.9857 76.7031 33.2015 76.8278C33.4171 76.9524 33.6723 77.009 33.9326 76.9774C34.8217 76.87 37.9755 76.4398 41.2345 75.414C41.8554 75.2186 42.2002 74.5569 42.0048 73.9361C41.8094 73.3154 41.1476 72.9705 40.5269 73.1658C38.164 73.9096 35.8562 74.3209 34.5384 74.5168C33.4924 71.8475 30.7897 64.1019 32.9855 60.3027C34.0786 58.4114 36.5065 57.7621 38.3978 58.8552C39.6422 59.5744 40.3992 60.917 40.3734 62.3593C40.3658 62.7876 40.5911 63.1863 40.9621 63.4008C41.3331 63.6152 41.791 63.6114 42.1583 63.3909C43.3952 62.6486 44.9365 62.6343 46.1809 63.3535C48.0721 64.4466 48.7215 66.8746 47.6284 68.7659C47.0755 69.7225 46.0796 70.6166 44.6686 71.4232C44.1036 71.7463 43.9073 72.4662 44.2303 73.0313C44.5535 73.5961 45.2733 73.7927 45.8383 73.4696C47.616 72.4534 48.9048 71.2676 49.6691 69.9453C51.4121 66.9286 50.3764 63.0561 47.3599 61.3126Z" fill="#C70000"/>
</g>
<defs>
<clipPath id="clip0_16_135">
<rect width="73.852" height="73.852" fill="white" transform="translate(34.9557) rotate(30.0266)"/>
</clipPath>
</defs>
</svg>
