<svg width="50" height="50" viewBox="0 0 50 50" fill="none" xmlns="http://www.w3.org/2000/svg">
<g clip-path="url(#clip0_16_116)">
<path d="M49.6568 33.2077C49.328 32.9225 48.8521 32.8836 48.4814 33.1119C44.5044 35.5622 40.0982 36.7615 35.7686 36.7613C29.8695 36.761 24.1139 34.5339 19.7901 30.21C12.2928 22.7127 11.0993 10.9142 16.888 1.51853C17.1164 1.14792 17.0776 0.671942 16.7922 0.34323C16.5069 0.0144212 16.0409 -0.0907548 15.642 0.0831713C6.13986 4.22615 0 13.5988 0 23.9611C0 30.9163 2.7086 37.4553 7.62668 42.3734C12.5448 47.2915 19.0836 50 26.0389 50C36.4012 50 45.7739 43.8601 49.9169 34.3578C50.0908 33.9589 49.9856 33.4931 49.6568 33.2077ZM26.0389 48.008C12.7793 48.008 1.992 37.2206 1.992 23.9611C1.992 15.4426 6.48536 7.64813 13.6619 3.33962C11.756 7.50848 10.9506 12.1296 11.3781 16.6426C11.6429 19.437 12.3626 22.127 13.5173 24.6378C14.713 27.2376 16.3495 29.5863 18.3817 31.6183C20.4137 33.6503 22.7624 35.287 25.3623 36.4827C27.873 37.6374 30.563 38.3571 33.3574 38.6218C37.8709 39.0495 42.4918 38.244 46.6604 36.3379C42.352 43.5147 34.5574 48.008 26.0389 48.008Z" fill="#D40008"/>
<path d="M49.6568 33.2077C49.328 32.9225 48.8521 32.8836 48.4814 33.1119C44.5044 35.5622 40.0982 36.7615 35.7686 36.7613C29.8695 36.761 24.1139 34.5339 19.7901 30.21C12.2928 22.7127 11.0993 10.9142 16.888 1.51853C17.1164 1.14792 17.0776 0.671942 16.7922 0.34323C16.5069 0.0144212 16.0409 -0.0907548 15.642 0.0831713C6.13986 4.22615 0 13.5988 0 23.9611C0 30.9163 2.7086 37.4553 7.62668 42.3734C12.5448 47.2915 19.0836 50 26.0389 50C36.4012 50 45.7739 43.8601 49.9169 34.3578C50.0908 33.9589 49.9856 33.4931 49.6568 33.2077ZM26.0389 48.008C12.7793 48.008 1.992 37.2206 1.992 23.9611C1.992 15.4426 6.48536 7.64813 13.6619 3.33962C11.756 7.50848 10.9506 12.1296 11.3781 16.6426C11.6429 19.437 12.3626 22.127 13.5173 24.6378C14.713 27.2376 16.3495 29.5863 18.3817 31.6183C20.4137 33.6503 22.7624 35.287 25.3623 36.4827C27.873 37.6374 30.563 38.3571 33.3574 38.6218C37.8709 39.0495 42.4918 38.244 46.6604 36.3379C42.352 43.5147 34.5574 48.008 26.0389 48.008Z" fill="black" fill-opacity="0.2"/>
<path d="M25.9228 44.1235C19.9127 44.1235 14.271 41.4603 10.4447 36.817C10.0947 36.3924 9.46713 36.3319 9.04262 36.6817C8.61811 37.0317 8.55756 37.6593 8.90736 38.0838C13.1136 43.188 19.3156 46.1155 25.9229 46.1155C26.4729 46.1155 26.9189 45.6696 26.9189 45.1195C26.9188 44.5695 26.4728 44.1235 25.9228 44.1235Z" fill="#D40008"/>
<path d="M25.9228 44.1235C19.9127 44.1235 14.271 41.4603 10.4447 36.817C10.0947 36.3924 9.46713 36.3319 9.04262 36.6817C8.61811 37.0317 8.55756 37.6593 8.90736 38.0838C13.1136 43.188 19.3156 46.1155 25.9229 46.1155C26.4729 46.1155 26.9189 45.6696 26.9189 45.1195C26.9188 44.5695 26.4728 44.1235 25.9228 44.1235Z" fill="black" fill-opacity="0.2"/>
<path d="M8.53282 34.0561C8.26095 33.5834 8.00558 33.0941 7.77374 32.6014C7.53956 32.1038 6.9461 31.8899 6.44844 32.1243C5.95059 32.3584 5.73702 32.9518 5.9713 33.4496C6.22618 33.9914 6.50704 34.5296 6.80597 35.0495C6.99024 35.3699 7.3255 35.5491 7.67032 35.5491C7.83878 35.5491 8.00948 35.5063 8.16603 35.4161C8.64279 35.1418 8.80704 34.5331 8.53282 34.0561Z" fill="#D40008"/>
<path d="M8.53282 34.0561C8.26095 33.5834 8.00558 33.0941 7.77374 32.6014C7.53956 32.1038 6.9461 31.8899 6.44844 32.1243C5.95059 32.3584 5.73702 32.9518 5.9713 33.4496C6.22618 33.9914 6.50704 34.5296 6.80597 35.0495C6.99024 35.3699 7.3255 35.5491 7.67032 35.5491C7.83878 35.5491 8.00948 35.5063 8.16603 35.4161C8.64279 35.1418 8.80704 34.5331 8.53282 34.0561Z" fill="black" fill-opacity="0.2"/>
</g>
<defs>
<clipPath id="clip0_16_116">
<rect width="50" height="50" fill="white"/>
</clipPath>
</defs>
</svg>
