<svg width="55" height="55" viewBox="0 0 55 55" fill="none" xmlns="http://www.w3.org/2000/svg">
<path d="M11.7219 35.3633V41.953C13.7353 44.421 16.273 46.4096 19.1508 47.7745C22.0286 49.1394 25.1743 49.8463 28.3594 49.8438C35.7912 49.8438 42.3431 46.0694 46.2 40.3339V31.0974C44.88 39.765 37.3948 46.4063 28.3594 46.4063C20.8759 46.4063 14.4564 41.8516 11.7219 35.3633ZM43.0203 17.8338V14.8741C43.0145 14.2213 43.1215 13.5724 43.3365 12.956C39.3302 9.05033 33.9544 6.8677 28.3594 6.87502C23.3524 6.86759 18.5014 8.61618 14.6506 11.8164L14.6592 11.9213L14.6609 11.9677V16.6083C16.3538 14.6316 18.455 13.0452 20.8198 11.9583C23.1846 10.8715 25.7568 10.31 28.3594 10.3125C34.399 10.3125 39.7444 13.2791 43.0203 17.8338Z" fill="#D40008"/>
<path d="M11.7219 35.3633V41.953C13.7353 44.421 16.273 46.4096 19.1508 47.7745C22.0286 49.1394 25.1743 49.8463 28.3594 49.8438C35.7912 49.8438 42.3431 46.0694 46.2 40.3339V31.0974C44.88 39.765 37.3948 46.4063 28.3594 46.4063C20.8759 46.4063 14.4564 41.8516 11.7219 35.3633ZM43.0203 17.8338V14.8741C43.0145 14.2213 43.1215 13.5724 43.3365 12.956C39.3302 9.05033 33.9544 6.8677 28.3594 6.87502C23.3524 6.86759 18.5014 8.61618 14.6506 11.8164L14.6592 11.9213L14.6609 11.9677V16.6083C16.3538 14.6316 18.455 13.0452 20.8198 11.9583C23.1846 10.8715 25.7568 10.31 28.3594 10.3125C34.399 10.3125 39.7444 13.2791 43.0203 17.8338Z" fill="black" fill-opacity="0.2"/>
<path d="M42.1094 28.3594C42.1094 32.0062 40.6607 35.5035 38.0821 38.0822C35.5035 40.6608 32.0061 42.1094 28.3594 42.1094C24.7126 42.1094 21.2153 40.6608 18.6367 38.0822C16.058 35.5035 14.6094 32.0062 14.6094 28.3594C14.6094 24.7127 16.058 21.2153 18.6367 18.6367C21.2153 16.0581 24.7126 14.6094 28.3594 14.6094C32.0061 14.6094 35.5035 16.0581 38.0821 18.6367C40.6607 21.2153 42.1094 24.7127 42.1094 28.3594ZM28.3594 40.3907C29.9393 40.3907 31.5038 40.0795 32.9635 39.4749C34.4232 38.8702 35.7495 37.984 36.8668 36.8668C37.984 35.7496 38.8702 34.4233 39.4748 32.9636C40.0794 31.5039 40.3906 29.9394 40.3906 28.3594C40.3906 26.7795 40.0794 25.215 39.4748 23.7553C38.8702 22.2956 37.984 20.9693 36.8668 19.8521C35.7495 18.7349 34.4232 17.8486 32.9635 17.244C31.5038 16.6394 29.9393 16.3282 28.3594 16.3282C25.1685 16.3282 22.1083 17.5958 19.852 19.8521C17.5957 22.1084 16.3281 25.1686 16.3281 28.3594C16.3281 31.5503 17.5957 34.6105 19.852 36.8668C22.1083 39.1231 25.1685 40.3907 28.3594 40.3907ZM51.5453 13.6469C51.5453 12.1001 50.2906 10.8454 48.7438 10.8454C46.5094 10.8454 44.7219 12.6501 44.7391 14.8672V24.4063C44.7391 26.5599 45.9869 28.4883 47.9187 29.3615V44.1719C47.9187 45.0657 48.6406 45.7876 49.5344 45.7876H49.9297C50.8234 45.7876 51.5453 45.0657 51.5453 44.1719V13.6469ZM11.7219 10.8454C11.4119 10.8454 11.1146 10.9685 10.8954 11.1877C10.6763 11.4069 10.5531 11.7042 10.5531 12.0141V16.6376C10.5531 16.9813 10.2781 17.2391 9.95156 17.2391C9.60781 17.2391 9.35 16.9641 9.35 16.6376V12.0657C9.35 11.4298 8.85156 10.8626 8.21563 10.8454C7.54531 10.8282 6.99531 11.361 6.99531 12.0141V16.6376C6.99531 16.9813 6.72031 17.2391 6.39375 17.2391C6.05 17.2391 5.79219 16.9641 5.79219 16.6376V12.0657C5.79219 11.4298 5.29375 10.8626 4.65781 10.8454C3.9875 10.8282 3.4375 11.361 3.4375 12.0141V19.886C3.4375 21.4363 4.18859 22.8199 5.34359 23.6827C6.37656 24.2654 6.37656 26.9329 6.37656 26.9329V44.1547C6.37656 45.0485 7.09844 45.7704 7.99219 45.7704H8.3875C9.28125 45.7704 10.0031 45.0485 10.0031 44.1547V26.9329C10.0031 26.9329 10.0031 24.3702 11.0361 23.6827C11.6271 23.2416 12.107 22.6687 12.4379 22.0097C12.7688 21.3506 12.9415 20.6235 12.9422 19.886V12.0141C12.9248 11.7009 12.7891 11.406 12.5626 11.1891C12.336 10.9721 12.0355 10.8492 11.7219 10.8454Z" fill="#D40008"/>
<path d="M42.1094 28.3594C42.1094 32.0062 40.6607 35.5035 38.0821 38.0822C35.5035 40.6608 32.0061 42.1094 28.3594 42.1094C24.7126 42.1094 21.2153 40.6608 18.6367 38.0822C16.058 35.5035 14.6094 32.0062 14.6094 28.3594C14.6094 24.7127 16.058 21.2153 18.6367 18.6367C21.2153 16.0581 24.7126 14.6094 28.3594 14.6094C32.0061 14.6094 35.5035 16.0581 38.0821 18.6367C40.6607 21.2153 42.1094 24.7127 42.1094 28.3594ZM28.3594 40.3907C29.9393 40.3907 31.5038 40.0795 32.9635 39.4749C34.4232 38.8702 35.7495 37.984 36.8668 36.8668C37.984 35.7496 38.8702 34.4233 39.4748 32.9636C40.0794 31.5039 40.3906 29.9394 40.3906 28.3594C40.3906 26.7795 40.0794 25.215 39.4748 23.7553C38.8702 22.2956 37.984 20.9693 36.8668 19.8521C35.7495 18.7349 34.4232 17.8486 32.9635 17.244C31.5038 16.6394 29.9393 16.3282 28.3594 16.3282C25.1685 16.3282 22.1083 17.5958 19.852 19.8521C17.5957 22.1084 16.3281 25.1686 16.3281 28.3594C16.3281 31.5503 17.5957 34.6105 19.852 36.8668C22.1083 39.1231 25.1685 40.3907 28.3594 40.3907ZM51.5453 13.6469C51.5453 12.1001 50.2906 10.8454 48.7438 10.8454C46.5094 10.8454 44.7219 12.6501 44.7391 14.8672V24.4063C44.7391 26.5599 45.9869 28.4883 47.9187 29.3615V44.1719C47.9187 45.0657 48.6406 45.7876 49.5344 45.7876H49.9297C50.8234 45.7876 51.5453 45.0657 51.5453 44.1719V13.6469ZM11.7219 10.8454C11.4119 10.8454 11.1146 10.9685 10.8954 11.1877C10.6763 11.4069 10.5531 11.7042 10.5531 12.0141V16.6376C10.5531 16.9813 10.2781 17.2391 9.95156 17.2391C9.60781 17.2391 9.35 16.9641 9.35 16.6376V12.0657C9.35 11.4298 8.85156 10.8626 8.21563 10.8454C7.54531 10.8282 6.99531 11.361 6.99531 12.0141V16.6376C6.99531 16.9813 6.72031 17.2391 6.39375 17.2391C6.05 17.2391 5.79219 16.9641 5.79219 16.6376V12.0657C5.79219 11.4298 5.29375 10.8626 4.65781 10.8454C3.9875 10.8282 3.4375 11.361 3.4375 12.0141V19.886C3.4375 21.4363 4.18859 22.8199 5.34359 23.6827C6.37656 24.2654 6.37656 26.9329 6.37656 26.9329V44.1547C6.37656 45.0485 7.09844 45.7704 7.99219 45.7704H8.3875C9.28125 45.7704 10.0031 45.0485 10.0031 44.1547V26.9329C10.0031 26.9329 10.0031 24.3702 11.0361 23.6827C11.6271 23.2416 12.107 22.6687 12.4379 22.0097C12.7688 21.3506 12.9415 20.6235 12.9422 19.886V12.0141C12.9248 11.7009 12.7891 11.406 12.5626 11.1891C12.336 10.9721 12.0355 10.8492 11.7219 10.8454Z" fill="black" fill-opacity="0.2"/>
</svg>
